<svg xmlns="http://www.w3.org/2000/svg" xmlns:xlink="http://www.w3.org/1999/xlink" width="1235" height="275"><defs><radialGradient id="c" cx="50%" cy="59.734%" r="90.459%" fx="50%" fy="59.734%" gradientTransform="matrix(0 -1 .55826 0 .167 1.097)"><stop offset="0%" stop-color="#1059B3"/><stop offset="100%" stop-color="#167BF7"/></radialGradient><filter id="b" width="105.4%" height="127.2%" x="-2.3%" y="-11.9%" filterUnits="objectBoundingBox"><feOffset dx="4" dy="4" in="SourceAlpha" result="shadowOffsetOuter1"/><feGaussianBlur in="shadowOffsetOuter1" result="shadowBlurOuter1" stdDeviation="10"/><feColorMatrix in="shadowBlurOuter1" values="0 0 0 0 0.470588235 0 0 0 0 0.529411765 0 0 0 0 0.71372549 0 0 0 0.1 0"/></filter><rect id="a" width="1195" height="235" x="0" y="0" rx="5"/></defs><g transform="translate(16 16)" fill="none" fill-rule="evenodd"><mask id="d" fill="#fff"><use xlink:href="#a"/></mask><use fill="#000" filter="url(#b)" xlink:href="#a"/><use fill="#093366" xlink:href="#a"/><use fill="#167BF7" xlink:href="#a"/><use fill="url(#c)" xlink:href="#a"/><g fill="#063262" fill-rule="nonzero" mask="url(#d)" opacity=".82"><path d="M167 78.597V57.775h-20.831v20.822H167" opacity=".14"/><path d="M123.813 54.399V33.577h-20.832v20.822h20.832" opacity=".08"/><path d="M98.785 154.405v-20.831H77.963v20.831h20.822" opacity=".23"/><path d="M98.785 129.415v-20.831H77.963v20.831h20.822" opacity=".07"/><path d="M98.785 54.399V33.577H77.963v20.822h20.822" opacity=".16"/><path d="M73.823 179.405v-20.804H52.992v20.804h20.831" opacity=".23"/><path d="M73.823 154.405v-20.831H52.992v20.831h20.831" opacity=".14"/><path d="M73.823 104.416V83.594H52.992v20.822h20.831m0-50.017V33.577H52.992v20.822h20.831m-24.99 125.006v-20.804H28.002v20.804h20.831m0-25v-20.831H28.002v20.831h20.831" opacity=".23"/><path d="M48.833 129.415v-20.831H28.002v20.831h20.831" opacity=".1"/></g><g fill="#063262" fill-rule="nonzero" mask="url(#d)" opacity=".82"><path d="M407.827 236.827v-20.822h-20.832v20.822h20.832" opacity=".14"/><path d="M386.827 215.827v-20.822h-20.832v20.822h20.832" opacity=".08"/><path d="M301.827 247.827v-20.832h-20.822v20.832h20.822" opacity=".23"/><path d="M301.827 222.827v-20.832h-20.822v20.832h20.822" opacity=".07"/><path d="M359.785 197.399v-20.822h-20.822v20.822h20.822" opacity=".16"/><path d="M274.823 223.405v-20.804h-20.831v20.804h20.831" opacity=".23"/><path d="M274.823 198.405v-20.831h-20.831v20.831h20.831" opacity=".14"/><path d="M334.823 247.416v-20.822h-20.831v20.822h20.831m0-50.017v-20.822h-20.831v20.822h20.831m-84.99 26.006v-20.804h-20.831v20.804h20.831m0-25v-20.831h-20.831v20.831h20.831" opacity=".23"/><path d="M249.833 173.415v-20.831h-20.831v20.831h20.831" opacity=".1"/></g><g fill="#063262" fill-rule="nonzero" mask="url(#d)" opacity=".82"><path d="M977.327 226.827v-20.822h-20.832v20.822h20.832" opacity=".08"/><path d="M852.327 223.827v-20.832h-20.822v20.832h20.822" opacity=".07"/><path d="M825.323 199.405v-20.831h-20.831v20.831h20.831" opacity=".14"/><path d="M885.323 248.416v-20.822h-20.831v20.822h20.831m0-50.017v-20.822h-20.831v20.822h20.831" opacity=".23"/></g><g fill="#063262" fill-rule="nonzero" mask="url(#d)" opacity=".82"><path d="M1178.827 242.827h-20.822v-20.832h20.822v20.832" opacity=".08"/><path d="M1151.405 90.823h-20.831V69.992h20.831v20.831" opacity=".14"/><path d="M1200.416 150.823h-20.822v-20.831h20.822v20.831m-50.017 0h-20.822v-20.831h20.822v20.831" opacity=".23"/></g><g fill="#063262" fill-rule="nonzero" mask="url(#d)" opacity=".82"><path d="M464.673 24.327V3.505h20.832v20.822h-20.832" opacity=".08"/><path d="M589.673 21.327V.495h20.822v20.832h-20.822" opacity=".07"/><path d="M616.677-3.095v-20.831h20.831v20.831h-20.831" opacity=".14"/><path d="M556.677 45.916V25.094h20.831v20.822h-20.831m0-50.017v-20.822h20.831v20.822h-20.831" opacity=".23"/></g><path fill="#063262" fill-rule="nonzero" d="M861.681 17.089h20.822v20.832h-20.822V17.089" mask="url(#d)" opacity=".23" transform="rotate(-90 872.092 27.505)"/></g></svg>