<svg xmlns="http://www.w3.org/2000/svg" width="134" height="193"><g opacity=".182"><path d="M-11.813 37.408V16.586H9.019v20.822h-20.832m0-34.586V-18H9.019V2.822h-20.832m25.028 134.593v-20.832h20.822v20.832H13.215m0-24.99V91.593h20.822v20.832H13.215m0-75.017V16.586h20.822v20.822H13.215m74.962 155.006v-20.803h20.831v20.803H88.177m0-24.999v-20.832h20.831v20.832H88.177m-50-54.99V91.593h20.831v20.832H38.177m0-25V66.603h20.831v20.822H38.177m0-24.99V41.604h20.831v20.831H38.177m-49.163 11V52.604H9.845v20.831h-20.831m124.153 93.98v-20.832h20.831v20.832h-20.831m-50-54.99V91.593h20.831v20.832H63.167" opacity=".991" fill="#167BF7" fill-rule="nonzero"/></g></svg>