<svg xmlns="http://www.w3.org/2000/svg" width="521" height="274"><g transform="translate(0 -.5)" fill="none" opacity=".606"><path fill="#167BF7" d="M287.854 133.5l-.854-.814a12.96 12.96 0 015.565-3.275l2.012-.584c7.115-2.051 13.207-6.585 17.117-12.737l5.555-8.763a28.866 28.866 0 004.534-15.533V.5H323v91.294a30.107 30.107 0 01-4.711 16.156l-5.565 8.753c-4.06 6.395-10.39 11.109-17.784 13.244l-2.012.584a11.774 11.774 0 00-5.074 2.969z"/><path fill="#167BF7" d="M290.811 136.5l-.811-.837c.404-.4.899-.694 1.442-.856l4.257-1.27a33.117 33.117 0 0018.76-14.431l5.402-8.794a33.514 33.514 0 004.974-17.587V17.5H326v75.225a34.692 34.692 0 01-5.117 18.222l-5.413 8.803a34.315 34.315 0 01-19.408 14.932l-4.296 1.28a2.244 2.244 0 00-.955.538zm-131.892 94c-1.499 0-2.733-.894-4.388-2.114a49.19 49.19 0 00-1.958-1.374l.676-.961c.744.5 1.4.96 1.958 1.403 2.8 2.037 3.75 2.729 6.933.48 0 0 5.416-4.19 7.942-8.773a5.4 5.4 0 00.597-1.758l.764-5.045a37.493 37.493 0 00-1.459-6.775 11.177 11.177 0 011.283-9.36l.47-.72c1.546-2.422 4.484-3.62 7.325-2.988l1.674.374a6.726 6.726 0 005.591-1.268 6.46 6.46 0 002.488-5.074v-2.998c-1.07-3.238-3.944-5.583-7.383-6.025l-4.603-.596a17.148 17.148 0 00-9.655 1.567l-7.404 3.574c-.427.204-.94.117-1.273-.216a1.071 1.071 0 01-.195-1.254l2.683-5.17c1.585-3.037 4.354-5.317 7.677-6.323l7.256-2.18a2.232 2.232 0 001.593-2.298 2.248 2.248 0 00-1.926-2.037l-1.958-.288a12.043 12.043 0 00-6.218.74l-8.099 3.257a10.279 10.279 0 00-4.299 3.277l-6.854 9.417c-.312.421-.841.63-1.363.538a1.37 1.37 0 01-1.086-.97l-.734-2.671a9.161 9.161 0 011.606-8.043l4.074-5.257a2.405 2.405 0 00-.091-3.042 2.52 2.52 0 00-3.043-.59l-1.46.76a15.708 15.708 0 00-6.854 7.043l-1.723 3.546a11.23 11.23 0 00.538 10.82l5.984 9.753a9.378 9.378 0 011.39 5.324l-.294 6.899.901 12.607-1.185.087-1.067-12.646.294-6.967a8.16 8.16 0 00-1.215-4.67l-5.983-9.753a12.365 12.365 0 01-.578-11.954l1.724-3.546a16.89 16.89 0 017.423-7.582l1.459-.759a3.72 3.72 0 014.528.857 3.553 3.553 0 01.104 4.524l-4.094 5.257a8.038 8.038 0 00-1.4 7.034l.734 2.671c.016.065.07.115.138.125a.18.18 0 00.186-.067l6.913-9.427a11.324 11.324 0 014.808-3.67l8.099-3.249a13.214 13.214 0 016.854-.826l1.959.288c1.686.264 2.93 1.688 2.938 3.363.008 1.496-.989 2.818-2.448 3.248l-7.257 2.191c-3.022.914-5.536 2.996-6.962 5.766l-2.576 4.949 7.208-3.479a18.366 18.366 0 0110.321-1.672l4.612.596c3.894.505 7.146 3.158 8.363 6.822l.098.298v3.075a7.635 7.635 0 01-2.94 5.986 7.949 7.949 0 01-6.598 1.5l-1.665-.375c-2.349-.516-4.775.473-6.061 2.47l-.47.72a10.016 10.016 0 00-1.146 8.399 39.659 39.659 0 011.508 7.043v.087l-.793 5.199a6.475 6.475 0 01-.725 2.142c-2.644 4.805-8.04 8.976-8.274 9.148a7.058 7.058 0 01-3.917 1.586z"/><path fill="#167BF7" d="M165.702 189.5l-.702-1.025a27.458 27.458 0 019.94-4.671c5.505-1.22 14.675 1.618 15.06 1.741l-.327 1.199c-.096 0-9.277-2.879-14.492-1.721a26.682 26.682 0 00-9.479 4.477zm-22.5 52a12.782 12.782 0 01-10.253-5.356c-5.135-6.587-6.41-17.657-3.185-27.544 1.921-6 4.395-11.813 7.39-17.366 1.054-2 2.26-3.916 3.607-5.734l.98.728c-.059.077-5.832 7.548-10.781 22.731-3.117 9.538-1.96 20.17 2.94 26.458 2.656 3.405 6.106 5.093 9.988 4.85 10.3-.581 17.181-9.284 19.053-11.933.138-.203.236-.34.47-.388l.246 1.155-.118-.582.461.368-.078.117c-1.96 2.765-9.135 11.836-19.966 12.447l-.754.049zm163.723-2l-.321-.163c-.273-.135-26.734-13.657-37.798-23.283a64.244 64.244 0 01-14.132-18.235 23.019 23.019 0 01-2.2-9.914h1.188a21.746 21.746 0 002.064 9.377 63.051 63.051 0 0013.869 17.937c10.294 8.954 34.175 21.383 37.233 22.957 13.635-9.598 18.427-23.034 20.073-32.63a60.572 60.572 0 00.37-18.437c-8.045-1.229-41.051-5.279-41.382-5.317l-1.091-.134.71-.826c8.357-9.76.683-26.277-2.268-29.406-2.951-3.128-7.383-2.955-13.996-2.524-6.262.413-6.69 3.283-6.7 3.311l-.059.51h-.545c-4.506-.136-8.424 3.02-9.184 7.399v.287l-.263.135c-.719.365-1.403.792-2.045 1.276a3.087 3.087 0 00-1.16 3.273 3.291 3.291 0 002.64 2.466 13.276 13.276 0 017.733 4.29c2.22 2.524 1.071 5.596.058 8.292-.087.25-.185.49-.272.73l-1.12-.394.282-.739c.974-2.63 1.948-5.115.156-7.12a12.13 12.13 0 00-7.061-3.907c-1.759-.315-3.162-1.626-3.574-3.34a4.305 4.305 0 011.587-4.482 15.368 15.368 0 011.948-1.257c.35-1.45 2.308-7.822 9.827-8.071.39-1.075 1.89-3.455 7.674-3.839 6.954-.46 11.756-.5 14.94 2.88 1.559 1.64 4.334 6.717 5.659 12.744 1.081 4.943 1.441 11.862-2.688 17.38 5.843.72 34.282 4.233 40.807 5.26l.42.067.067.403a60.716 60.716 0 01-.292 19.252c-1.704 9.876-6.7 23.725-20.861 33.59l-.293.202z"/><path fill="#167BF7" d="M276.362 191.5l-.362-1.111.18.55-.18-.55c.045 0 4.818-1.875 10.15-8.889l.85.744c-5.54 7.304-10.43 9.179-10.638 9.256zm-3.318-22c-6.076-9.46-19.874-8.796-19.978-8.796l-.066-1.192a30.38 30.38 0 018.035.85c5.81 1.378 10.296 4.31 12.965 8.473l-.956.665zm9.098-12c-6.242-6.502-18.86-4.694-18.963-4.668L263 151.77a34.758 34.758 0 017.43-.131c5.45.482 9.798 2.263 12.57 5.141l-.858.72zm-5.094 5c-6.564-6.742-21.928-6.912-22.048-6.912V154.5c2.969.076 5.924.39 8.83.936 6.483 1.213 11.254 3.345 14.17 6.35l-.952.714zm-17.976-11l-1.105-.41s.479-1.279-.665-4.09c-.664-2.038-.218-4.25 1.193-5.923 1.152-1.276 2.974-1.84 4.715-1.46 2.48.499 4.443 2.267 5.066 4.563l.724 2.528-1.154.283-.724-2.528c-.516-1.87-2.123-3.306-4.147-3.706-1.315-.312-2.705.111-3.57 1.086-1.14 1.362-1.504 3.154-.979 4.81 1.301 3.177.724 4.701.646 4.847zm-32.418-14a26.099 26.099 0 01-9.654-5.107l.844-.893a25.18 25.18 0 009.156 4.84l-.346 1.16zm-36.934 13a3.283 3.283 0 01-2.628-1.315l-4.438-5.922a3.284 3.284 0 01.652-4.588l14.016-10.52a3.279 3.279 0 014.585.652l4.438 5.922a3.294 3.294 0 01-.652 4.598l-14.006 10.51a3.25 3.25 0 01-1.967.663zm9.559-21.81a2.05 2.05 0 00-1.246.41l-14.016 10.52a2.105 2.105 0 00-.419 2.922l4.448 5.922a2.078 2.078 0 002.92.419l14.017-10.52a2.114 2.114 0 00.418-2.932l-4.438-5.923a2.12 2.12 0 00-1.382-.808 1.606 1.606 0 00-.302-.01zm-16.956 9.81l-3.659-5.042c-1.1-1.517-.803-3.667.663-4.808l8.346-6.46a3.25 3.25 0 012.467-.656 3.3 3.3 0 012.191 1.34l3.669 5.042-.989.745-3.659-5.042a2.076 2.076 0 00-1.404-.848 2.082 2.082 0 00-1.573.409l-8.346 6.46c-.933.727-1.123 2.095-.425 3.063l3.669 5.042-.95.755z"/><path fill="#167BF7" d="M196.308 155.5a3.295 3.295 0 01-2.665-1.378l-3.643-5.04.987-.745 3.653 5.04a2.078 2.078 0 002.962.44l8.332-6.46c.451-.344.747-.864.82-1.439a2.232 2.232 0 00-.395-1.632l-3.663-5.041.987-.745 3.653 5.04c1.099 1.52.803 3.673-.661 4.817l-8.382 6.47c-.574.44-1.27.676-1.985.673zm5.827 74a2.437 2.437 0 01-.699-.106l.364-1.123a2.46 2.46 0 002.232-.967c1.274-1.267 2.059-3.154 1.743-4.208l-20.995-69.06a2.357 2.357 0 00-1.475-1.528l-40.228-13.698c-1.302-.445-4.023.3-5.296 1.45a1.46 1.46 0 00-.604 1.258l-1.14.262c-.161-.92.21-1.85.958-2.4 1.6-1.45 4.732-2.273 6.446-1.692l40.228 13.697a3.547 3.547 0 012.212 2.303l20.995 69.07c.518 1.683-.67 4.033-2.04 5.388a3.999 3.999 0 01-2.7 1.354z"/><path fill="#167BF7" d="M198.535 228.5a3.588 3.588 0 01-1.088-.173l-27.097-9.06.372-1.102 27.097 9.05a2.304 2.304 0 002.327-.551c.614-.604.843-1.5.596-2.325l-20.937-68.452a2.315 2.315 0 00-1.47-1.525l-40.116-13.575a2.306 2.306 0 00-2.288.47 2.325 2.325 0 00-.711 2.233l5.053 21.36-1.137.27-5.053-21.37a3.5 3.5 0 011.07-3.356 3.468 3.468 0 013.439-.71l40.115 13.576a3.454 3.454 0 012.206 2.282l20.937 68.442a3.507 3.507 0 01-.53 3.092 3.478 3.478 0 01-2.785 1.424z"/><path fill="#167BF7" d="M189.013 213.49a2.811 2.811 0 01-.785-.102L171 207.775l.378-1.075 17.209 5.565a1.853 1.853 0 001.75-.477c.453-.45.621-1.1.44-1.702l-5.283-17.268 1.134-.318 5.236 17.258a2.8 2.8 0 01-.444 2.567 3.023 3.023 0 01-2.407 1.175v-.01zm-6.015-36.99l-1.21-.073h.605-.605c0-.739-1.914-7.043-3.788-12.599l1.16-.328c.655 1.952 3.927 11.768 3.838 13zm-13.402-14l-27.08-8.77a1.008 1.008 0 00-.986.229.989.989 0 00-.296.953l1.668 6.673-1.164.276-1.668-6.673a2.06 2.06 0 01.642-2.087 2.264 2.264 0 012.19-.505l27.098 8.78-.404 1.124zm33.974-30l-.57-1.026c1.703-1.312 6.395-4.943 6.438-4.974l.562 1.026c-.051.05-4.777 3.671-6.43 4.974zm-25.052 16.683l5.58-4.401.726.921-5.58 4.401zm115.942 32.946l22.896-56.877 1.088.438-22.897 56.877zm-155.669-71.507l1.14-.282 7.017 28.358-1.139.282zM335.844 190.5a25.608 25.608 0 00-6.592 0l-.252-.766a26.292 26.292 0 017 0l-.156.766zm-131.478-56.432l7.396-5.112.667.967-7.397 5.11zm-22.12 16.649l4.01-3.05.71.933-4.01 3.05z"/><path fill="#167BF7" d="M205.091 131.5l-13.816-14.698c-1.728-1.835-2.533-4.316-2.202-6.78l1.828-13.522 1.222.147-1.828 13.522a7.11 7.11 0 001.889 5.879L206 130.746l-.909.754zm-61.873-22.88l1.14-.274 7.756 32.207-1.14.275zm146.895 72.45l22.303-58.133 1.095.42-22.303 58.133zM111.766 257.5H71.234c-1.786 0-3.234-1.439-3.234-3.213v-51.583c.005-1.771 1.452-3.204 3.234-3.204h40.532c1.782 0 3.229 1.433 3.234 3.204v51.583c0 1.774-1.448 3.213-3.234 3.213zm-40.532-56.846a2.066 2.066 0 00-2.063 2.05v51.583c0 1.132.924 2.05 2.063 2.05h40.532c.547 0 1.072-.216 1.459-.6.387-.385.604-.907.604-1.45v-51.583a2.066 2.066 0 00-2.063-2.05H71.234z"/><path fill="#167BF7" d="M96 257.5H56.195a3.141 3.141 0 01-2.258-.945c-.6-.61-.937-1.44-.937-2.305v-44.151a2.813 2.813 0 011.527-2.498L69.9 199.5l.519 1.042-15.364 8.1c-.546.28-.89.852-.886 1.476v44.151c0 1.145.907 2.074 2.026 2.074H96v1.157z"/><path fill="#167BF7" d="M61.807 240.498h-3.67A1.141 1.141 0 0157 239.363v-6.56h4.642l-1.954-4.458a1.354 1.354 0 01.132-1.248 1.335 1.335 0 011.097-.597h1.055A1.03 1.03 0 0163 227.533v11.876a1.134 1.134 0 01-1.193 1.089zm-3.752-6.57v5.435h3.752v-5.453l-3.752.018zm2.752-6.348a.211.211 0 00-.201.313l1.201 2.667v-2.98h-1z"/><path fill="#167BF7" d="M57.086 233.5l-1.93-4.383a1.846 1.846 0 01.158-1.772 1.92 1.92 0 011.596-.845H61v1.105h-4.09a.779.779 0 00-.655.344.731.731 0 00-.065.724l1.93 4.383-1.034.444zm7.924-112A16 16 0 1181 105.51c-.016 8.824-7.166 15.974-15.99 15.99zm0-30.824c-8.188-.006-14.829 6.627-14.834 14.815-.006 8.187 6.627 14.828 14.815 14.834 8.187.005 14.828-6.628 14.834-14.815-.005-8.182-6.634-14.814-14.815-14.825v-.01z"/><path fill="#167BF7" d="M64 117.5a12 12 0 1112-11.99c-.005 6.623-5.376 11.99-12 11.99zm0-22.823c-5.982 0-10.832 4.85-10.832 10.833 0 5.982 4.85 10.832 10.832 10.832 5.983 0 10.833-4.85 10.833-10.832C74.827 99.53 69.98 94.683 64 94.677zm3.87 43.823h-5.74c-2.278 0-4.125-1.97-4.13-4.404v-9.212c.016-2.426 1.86-4.384 4.13-4.384h5.74c2.278 0 4.125 1.97 4.13 4.404v9.212c-.016 2.426-1.86 4.384-4.13 4.384zm-5.74-16.79c-1.642 0-2.975 1.42-2.98 3.174v9.212c.005 1.755 1.338 3.174 2.98 3.174h5.74c1.642 0 2.975-1.42 2.98-3.174v-9.212c-.005-1.755-1.338-3.175-2.98-3.175h-5.74zM39.165 215.5H38v-58h53v41.86h-1.165v-40.696h-50.67z"/><path fill="#3750D7" d="M51.99 225.5h-9.27c-2.609-.005-4.72-2.2-4.72-4.904V213.5h14v1.173H39.122v5.933c0 2.056 1.605 3.725 3.588 3.73h9.271l.01 1.164z"/><path fill="#167BF7" d="M92.589 158.5H36.43a2.423 2.423 0 01-2.43-2.407v-2.039a2.423 2.423 0 012.43-2.406c.584.004 1.091-.4 1.215-.967l1.497-7.597a2.428 2.428 0 012.382-1.933h.894a1.25 1.25 0 001.245-1.237v-2.136a2.408 2.408 0 011.05-1.99l10.041-6.863c.405-.273.882-.42 1.371-.425h16.76c.492.003.972.15 1.38.425l10.041 6.862a2.41 2.41 0 011.05 1.991v2.136a1.241 1.241 0 001.235 1.199h.894c1.155 0 2.15.808 2.382 1.933l1.497 7.596c.124.568.631.971 1.215.967a2.422 2.422 0 012.42 2.406v2.04a2.41 2.41 0 01-.694 1.72c-.452.46-1.07.72-1.716.725zm-51.065-16.208a1.234 1.234 0 00-1.215.966l-1.497 7.587a2.426 2.426 0 01-2.382 1.933 1.24 1.24 0 00-1.244 1.228v2.04c-.016.337.108.667.343.912.235.244.56.383.901.382h56.16c.327 0 .641-.13.873-.36.231-.23.361-.542.361-.867v-2.059a1.23 1.23 0 00-1.234-1.227 2.428 2.428 0 01-2.382-1.933l-1.497-7.587a1.234 1.234 0 00-1.215-.967h-.904a2.423 2.423 0 01-2.43-2.416v-2.136a1.246 1.246 0 00-.535-1.015l-10.042-6.862a1.256 1.256 0 00-.71-.222H56.126a1.203 1.203 0 00-.7.222l-10.042 6.862c-.337.229-.537.61-.534 1.015v2.136a2.423 2.423 0 01-2.43 2.416l-.895-.048zM65.495 123.5c-1.93-.01-3.49-1.404-3.495-3.124v-1.913c.096-1.66 1.635-2.963 3.5-2.963s3.404 1.302 3.5 2.963v1.913c-.005 1.723-1.571 3.12-3.505 3.124zm0-7.134c-1.297.005-2.347.94-2.352 2.097v1.913c-.115.809.305 1.605 1.077 2.042.773.437 1.76.437 2.532 0s1.192-1.233 1.077-2.042v-1.913a1.99 1.99 0 00-.672-1.496 2.503 2.503 0 00-1.662-.634v.033z"/><path fill="#167BF7" d="M55 141.5h27v1H55zm11 10h25v1H66zm-20 0h11v1H46zm14.216 52c-8.825-2.15-15.075-9.919-15.214-18.91-.138-8.99 5.868-16.944 14.623-19.36 8.755-2.417 18.056 1.31 22.642 9.074 4.586 7.764 3.304 17.61-3.12 23.97l-.815-.814a18.484 18.484 0 002.925-22.581c-4.326-7.31-13.091-10.814-21.336-8.529-8.244 2.286-13.894 9.785-13.751 18.254.142 8.47 6.041 15.779 14.358 17.791l-.312 1.105zm41.774-4h-1.147v-29.546c-.003-1.504-.759-2.897-1.99-3.666a3.905 3.905 0 00-4.02-.086l-3.686 2.113v27.936H90v-28.637l4.288-2.449a5.007 5.007 0 015.158.103c1.581.987 2.552 2.775 2.554 4.706l-.01 29.526zm-69.78 6a5.208 5.208 0 01-5.21-5.22v-28.572a5.22 5.22 0 017.702-4.58L39 169.461v33.312l-4.476 2.19a5.217 5.217 0 01-2.314.537zm0-37.864a4.151 4.151 0 00-2.078.574 4.045 4.045 0 00-1.985 3.498v28.572a4.073 4.073 0 005.859 3.659l3.847-1.881v-31.91l-3.696-2.013a4.115 4.115 0 00-1.947-.499z"/><path fill="#167BF7" d="M68.499 200.5a9.797 9.797 0 01-1.364-1.126l-15.581-15.79c-3.405-3.451-3.405-9.045 0-12.496a8.638 8.638 0 0112.33 0l15.572 15.79c3.392 3.456 3.392 9.04 0 12.496l-.803-.824c2.954-3 2.954-7.858 0-10.858l-15.572-15.78a7.525 7.525 0 00-5.357-2.25c-2.01 0-3.937.81-5.358 2.25a7.718 7.718 0 00-2.223 5.428c0 2.038.8 3.99 2.223 5.43l15.572 15.78c.365.354.762.67 1.187.947l-.626 1.003z"/><path fill="#167BF7" d="M57.709 201.5a8.722 8.722 0 01-6.165-2.54 8.742 8.742 0 010-12.33l15.58-15.58a8.716 8.716 0 0112.321 12.33l-15.571 15.58a8.723 8.723 0 01-6.165 2.54zm-5.353-3.353a7.578 7.578 0 0010.714-.001l15.572-15.57a7.576 7.576 0 00-10.714-10.713l-15.572 15.57a7.578 7.578 0 00.001 10.714l-.402.401.401-.401z"/><path fill="#167BF7" d="M65.402 203.5h-.412c-8.48-.005-15.66-6.444-16.827-15.092-1.166-8.648 4.038-16.858 12.197-19.24 8.159-2.384 16.776 1.789 20.195 9.779 3.42 7.99.594 17.351-6.62 21.94l-.613-.985c6.733-4.271 9.377-12.998 6.196-20.453-3.18-7.454-11.212-11.353-18.823-9.138-7.61 2.215-12.47 9.867-11.387 17.932 1.081 8.065 7.773 14.075 15.682 14.084h.412v1.173zM359 217.5h27v1h-27zm102 0h43v1h-43zm-461 0h39v1H0zm205 0h67v1h-67zm33.723-24c-.64 0-1.249-.265-1.683-.73l-3.443-3.711a2.265 2.265 0 010-3.065l16.697-18.494.87.769-16.716 18.503a1.095 1.095 0 000 1.5l3.443 3.71c.307.34.794.457 1.224.294l14.535-5.428a4.118 4.118 0 002.324-2.145l2.955-6.945 1.071.446-2.955 6.964a5.315 5.315 0 01-2.983 2.762l-14.478 5.427a2.452 2.452 0 01-.861.143z"/><path fill="#167BF7" d="M249.135 190.5l-1.135-.1.581-7.175c.084-.96.46-1.866 1.07-2.58l5.11-5.98 2.401-2.79c1.182-1.365 1.182-1.365 1.435-1.375v.608l.403.438c-.197.21-4.53 5.242-8.515 9.886a3.278 3.278 0 00-.769 1.873l-.581 7.195zm37.838-39l-1.061-.49 3.656-6.273c.456-.768.21-1.718-.58-2.23l-4.62-3.062c-2.226-1.482-5.378-1.092-7.066.874l-6.32 7.192-.982-.656 6.32-7.192c2.1-2.412 5.987-2.876 8.727-1.04l4.668 3.07c1.255.828 1.647 2.346.924 3.578l-3.666 6.229z"/><path fill="#167BF7" d="M280.444 148.541l5.528-7.56.946.692-5.528 7.56z"/><path fill="#167BF7" d="M287.758 142.5a2.181 2.181 0 01-1.257-.393l-3.493-2.4a2.312 2.312 0 01-1.003-2.072 2.294 2.294 0 011.272-1.911 2.206 2.206 0 012.254.19l3.493 2.401a2.322 2.322 0 01.876 2.57 2.25 2.25 0 01-2.142 1.615zm-.664-1.294a1.161 1.161 0 001.642-.322 1.23 1.23 0 00-.314-1.668l-3.493-2.4a1.127 1.127 0 00-.873-.187c-.468.09-.836.46-.933.936-.098.477.095.966.487 1.24l3.484 2.401z"/><path fill="#167BF7" d="M289.712 139.5c-.45 0-.89-.138-1.264-.394l-3.467-2.407a2.32 2.32 0 01-.93-2.38 2.274 2.274 0 011.808-1.781 2.27 2.27 0 011.693.358l3.467 2.407a2.324 2.324 0 01.88 2.576 2.26 2.26 0 01-2.152 1.621h-.035zm-3.458-5.906h-.229a1.17 1.17 0 00-.754.51 1.207 1.207 0 00-.185.895c.06.312.236.587.492.77l3.51 2.407a1.2 1.2 0 00.878.188c.47-.092.84-.462.938-.94a1.22 1.22 0 00-.49-1.244l-3.511-2.407a1.152 1.152 0 00-.65-.18zM253.01 186.5a2 2 0 11-.021-4 2 2 0 01.021 4zm0-2.725a.735.735 0 10.726.725.727.727 0 00-.726-.725zM230.067 197.5c-.85 0-1.614-.44-1.924-1.106-.31-.667-.105-1.426.519-1.913l6.456-4.981.824.761-6.447 4.981a.635.635 0 00-.271.507c-.01.193.078.38.24.516a.975.975 0 001.156 0l6.567-4.905.813.77-6.567 4.905a2.3 2.3 0 01-1.366.465z"/><path fill="#167BF7" d="M232.955 192.109l.03-.002.208 3.466-.03.002zm1.085-1.074l.03-.002.213 3.533-.03.002zm1.127-.902l.03-.002.204 3.389-.03.002zm.617.315l1.171-.07.14 2.312-1.172.071zM178.005 267.5H41.575a7.038 7.038 0 01-5.475-2.588l-2.516-3.057a7.004 7.004 0 01-1.208-6.699 7.064 7.064 0 015.063-4.58l19.71-4.744a1.936 1.936 0 012.013.42 1.91 1.91 0 01.487 1.986 1.927 1.927 0 01-1.593 1.293l-19.71 4.792c-1.112.26-2 1.09-2.333 2.175a3.32 3.32 0 00.655 3.067l2.449 2.98a3.246 3.246 0 002.506 1.18h136.382a9.413 9.413 0 002.477-.327l47.228-12.573a3.171 3.171 0 002.284-2.28 3.207 3.207 0 00-.703-2.953 3.134 3.134 0 00-1.648-.958l-36.202-8.874a7.098 7.098 0 01-4.867-4.198l-4.03-10.062 4.82 1.562 2.824 6.948a3.254 3.254 0 002.227 1.917l36.201 8.874c3.677.888 5.992 4.505 5.243 8.194a7.019 7.019 0 01-5.108 5.414l-47.228 12.573c-1.144.33-2.327.503-3.518.518zm-120.48-20.556h-.173l-19.71 4.791a5.871 5.871 0 00-4.207 3.827 5.823 5.823 0 001.036 5.575l2.593 3.018a5.864 5.864 0 004.559 2.157h136.382a12.637 12.637 0 003.162-.412l47.228-12.574a5.87 5.87 0 004.364-5.722 5.872 5.872 0 00-4.48-5.634l-36.202-8.874a4.418 4.418 0 01-3.036-2.616l-2.583-6.45-1.88-.604 3.114 7.6a5.916 5.916 0 004.057 3.498l36.202 8.883a4.387 4.387 0 013.219 5.377 4.344 4.344 0 01-3.122 3.114l-47.228 12.574c-.91.24-1.845.362-2.786.364H41.574a4.388 4.388 0 01-3.412-1.61l-2.448-2.98a4.437 4.437 0 01-.867-4.14 4.382 4.382 0 013.18-2.981l19.71-4.744a.738.738 0 00-.173-1.456l-.038.019z"/><path fill="#167BF7" d="M59.5 251.5a3.5 3.5 0 110-7 3.5 3.5 0 010 7zm0-5.84a2.34 2.34 0 100 4.68 2.34 2.34 0 000-4.68z"/><path fill="#167BF7" d="M60.76 251.5H59v-1.16h1.76c1.197 0 2.166-1.048 2.166-2.34 0-1.292-.97-2.34-2.165-2.34H59v-1.16h1.76c1.79 0 3.24 1.567 3.24 3.5s-1.45 3.5-3.24 3.5zm33.75 1a5.502 5.502 0 01-5.09-3.39 5.5 5.5 0 1110.58-2.1 5.499 5.499 0 01-5.49 5.49zm0-9.821a4.33 4.33 0 104.331 4.331 4.331 4.331 0 00-4.331-4.303v-.028z"/><path fill="#167BF7" d="M94.383 252.495h-3.33c-2.132.084-4.141-.944-5.234-2.679a5.25 5.25 0 010-5.632c1.093-1.735 3.102-2.763 5.233-2.68H95v5.5h-1.235v-4.301h-2.713c-1.73-.155-3.402.631-4.318 2.03a4.136 4.136 0 000 4.563c.916 1.398 2.589 2.185 4.318 2.03h3.33v1.17zM107 233.5H76v-.609c0-9.052 6.94-16.391 15.5-16.391 8.56 0 15.5 7.339 15.5 16.391v.609zm-29.82-1.227h28.64c-.282-8.148-6.61-14.6-14.32-14.6s-14.038 6.452-14.32 14.6z"/><path fill="#167BF7" d="M98 232.5h-1.124c.074-1.756-.742-3.415-2.125-4.317a4.067 4.067 0 00-4.492 0c-1.383.902-2.2 2.56-2.126 4.317H87c0-3.314 2.462-6 5.5-6s5.5 2.686 5.5 6zm-7.582-6l-1.366-5.298c-.218-.722.269-1.463 1.089-1.656.82-.192 1.661.237 1.88.959L94 226.082l-1.148.313-1.979-5.568c-.044-.15-.216-.239-.386-.2-.17.038-.271.19-.227.34l1.365 5.298-1.207.235zm16.367-18H77.233C76 208.5 75 207.38 75 206s1-2.5 2.233-2.5h29.534c1.233 0 2.233 1.12 2.233 2.5s-1 2.5-2.233 2.5h.018zm-29.552-3.713c-.562.059-.991.586-.991 1.218s.43 1.16.991 1.219h29.534c.562-.059.991-.587.991-1.219 0-.632-.43-1.16-.991-1.218H77.233zm148.8-11.287c-.048-.066-5.085-6.15-17.033-6.988l.097-1.012c12.567.88 17.69 7.154 17.903 7.42l-.967.58.484-.29-.484.29zm19.1 10.998c-3.789 0-7.912-2.83-8.133-2.973l.643-1.025c.057 0 6.224 4.264 9.8 2.224l.557 1.097a5.743 5.743 0 01-2.867.677zm-18.317 7.002l-.816-.967c3.799-2.621 2.427-8.704 2.416-8.791l1.296-.242c.065.329 1.545 6.905-2.896 10zm3.184-21h-1.516s0-3.91-2.484-6.208l1.143-.792c2.857 2.63 2.857 6.824 2.857 7zm-6-10h1v2h-1z"/><path fill="#167BF7" d="M224 180.5h2v1h-2z"/><path fill="#167BF7" d="M224.025 181.624l1.911-1.91.021.02-1.91 1.911z"/><path fill="#167BF7" d="M224.026 179.715l.021-.02 1.91 1.91-.02.02zM222 194.5h1v2h-1z"/><path fill="#167BF7" d="M221 195.5h2v1h-2z"/><path fill="#167BF7" d="M220.882 196.515l1.91-1.91.022.02-1.91 1.91z"/><path fill="#167BF7" d="M220.881 194.655l.022-.022 1.91 1.911-.021.021z"/><path fill="#3750D7" d="M204 183.5h1v2h-1z"/><path fill="#167BF7" d="M203 184.5h2v1h-2z"/><path fill="#3750D7" d="M203.726 185.81l1.91-1.91.022.02-1.91 1.91z"/><path fill="#3750D7" d="M203.726 183.92l.022-.022 1.91 1.912-.021.02z"/><path fill="#167BF7" d="M250 200.5h1v2h-1z"/><path fill="#167BF7" d="M250 201.5h2v1h-2z"/><path fill="#167BF7" d="M249.216 203.12l1.91-1.91.022.021-1.91 1.91z"/><path fill="#167BF7" d="M249.206 201.212l.021-.02 1.91 1.91-.02.02zM223 211.5h1v2h-1z"/><path fill="#167BF7" d="M222 211.5h2v1h-2z"/><path fill="#167BF7" d="M223.07 213.362l1.91-1.91.02.02-1.91 1.91z"/><path fill="#167BF7" d="M223.07 211.472l.02-.02 1.91 1.91-.021.022zM234 201.5h1v2h-1z"/><path fill="#167BF7" d="M233 202.5h2v1h-2z"/><path fill="#167BF7" d="M233.32 204.482l1.91-1.91.022.02-1.91 1.91z"/><path fill="#167BF7" d="M233.32 202.592l.021-.02 1.91 1.91-.02.02zM337.893 251.5a2.45 2.45 0 01-1.44-.502 3.674 3.674 0 01-1.258-1.794 3.614 3.614 0 01-.053-2.173 2.178 2.178 0 011.386-1.455 2.277 2.277 0 012.005.42 3.596 3.596 0 011.258 1.804c.544 1.63 0 3.229-1.333 3.618-.183.053-.374.08-.565.082zm-.778-4.755a.618.618 0 00-.192 0 .912.912 0 00-.534.625c-.147.464-.147.96 0 1.424.144.464.425.878.81 1.19a.99.99 0 00.811.214c.501-.153.832-1.025.49-2.05a2.409 2.409 0 00-.81-1.188 1.083 1.083 0 00-.575-.215z"/><path fill="#167BF7" d="M339 249.5l-.39-1.257 2.064-.886a.249.249 0 00.152-.192c.018-.091-.007-.187-.065-.251s-.14-.087-.217-.06l-2.248.733-.296-1.29 2.248-.722c.708-.266 1.464.197 1.689 1.033.224.836-.167 1.73-.875 1.995L339 249.5zm-97.104-22a2.43 2.43 0 01-1.429-.502 3.668 3.668 0 01-1.258-1.804c-.544-1.63 0-3.22 1.333-3.619a2.29 2.29 0 012.005.42 3.683 3.683 0 011.258 1.794c.24.704.259 1.46.053 2.173a2.177 2.177 0 01-1.386 1.456 2.19 2.19 0 01-.576.082zm-.778-4.756a.556.556 0 00-.182 0c-.5.153-.831 1.025-.49 2.05.138.466.42.881.81 1.189a.977.977 0 00.821.215.916.916 0 00.534-.625c.148-.464.148-.96 0-1.425a2.498 2.498 0 00-.822-1.19 1.162 1.162 0 00-.671-.214z"/><path fill="#167BF7" d="M243.008 225.5l-.396-1.254 2.1-.902a.227.227 0 00.128-.125.298.298 0 00.014-.193c-.04-.131-.157-.207-.273-.176l-2.28.725-.301-1.286 2.28-.737c.707-.215 1.435.255 1.656 1.07.22.814-.143 1.687-.828 1.987l-2.1.891zm92.092 36a2.115 2.115 0 01-.606-.102 2.139 2.139 0 01-1.363-1.464c-.2-.715-.17-1.471.085-2.17.564-1.627 2.002-2.579 3.29-2.17a2.161 2.161 0 011.363 1.475c.2.711.17 1.464-.085 2.159-.31 1.224-1.381 2.131-2.683 2.272zm.81-4.749c-.5 0-1.15.522-1.459 1.413-.17.453-.197.945-.074 1.412a.93.93 0 00.532.645c.49.153 1.289-.369 1.64-1.382a2.36 2.36 0 00.075-1.422.94.94 0 00-.533-.635.531.531 0 00-.18-.03z"/><path fill="#167BF7" d="M333.167 260.5l-2.303-.965c-.682-.325-1.025-1.173-.79-1.953.235-.779.97-1.23 1.692-1.038l2.234.705-.323 1.279-2.244-.716c-.122-.035-.247.041-.285.174-.039.128.022.268.138.314l2.302.964-.421 1.236zm-123.066-11a2.07 2.07 0 01-.606-.092c-1.277-.41-1.84-2.052-1.277-3.641.564-1.59 2.01-2.585 3.287-2.174 1.277.41 1.84 2.05 1.277 3.64-.31 1.224-1.382 2.13-2.68 2.267zm.809-4.749c-.49 0-1.15.513-1.458 1.416-.308.902 0 1.897.458 2.051.457.154 1.287-.37 1.638-1.385.35-1.025 0-1.897-.458-2.05a.502.502 0 00-.18-.032z"/><path fill="#167BF7" d="M208.167 248.5l-2.303-.965c-.682-.325-1.025-1.173-.79-1.953.235-.779.97-1.23 1.692-1.038l2.234.705-.323 1.268-2.244-.705c-.12-.036-.243.035-.285.163a.273.273 0 00.006.195.24.24 0 00.132.13l2.302.964-.421 1.236zm79.614 13.999c-1.84.002-3.415-1.42-3.726-3.368-.312-1.947.73-3.85 2.467-4.507l8.853-3.351 17.51-5.53a5.22 5.22 0 014.344.555c1.32.806 2.267 2.164 2.616 3.75v.052c.355 1.581.094 3.25-.724 4.62s-2.122 2.323-3.61 2.637l-10.034 2.168-9.829 1.895-7.35 1.047a2.88 2.88 0 01-.517.032zm7.926-10.022l-8.785 3.351c-1.27.46-2.003 1.888-1.685 3.286.318 1.399 1.58 2.305 2.905 2.086l7.33-1.047 9.761-1.896 10.024-2.167c1.171-.242 2.198-.988 2.842-2.065a4.96 4.96 0 00.565-3.632v-.052c-.28-1.244-1.024-2.31-2.057-2.95a4.092 4.092 0 00-3.41-.433l-17.49 5.519z"/><path fill="#167BF7" d="M286.986 261.5a2.987 2.987 0 01-2.552-4.539 2.994 2.994 0 015.565 1.607 2.996 2.996 0 01-2.3 2.845 2.96 2.96 0 01-.713.087zm0-4.819a1.811 1.811 0 00-1.762 2.246c.108.47.404.873.818 1.118a1.8 1.8 0 001.368.212 1.812 1.812 0 00.51-3.316c-.28-.163-.6-.246-.924-.24l-.01-.02z"/><path fill="#167BF7" d="M262.908 266.5l-.908-3.914 5.148-2.236 2.628.447 15.899-4.249c.916-.213 1.844.297 2.202 1.21.058.16.097.327.116.498.08.98-.519 1.878-1.42 2.135l-15.986 3.934-2.135 1.667-5.544.508zm.473-3.172l.435 1.85 4.202-.386 2.067-1.616 16.208-4.015a.753.753 0 00.531-.803.624.624 0 000-.183.697.697 0 00-.82-.458l-16.132 4.31-2.54-.427-3.95 1.728zm48.062-9.828c-.883.002-1.698-.42-2.13-1.105a1.963 1.963 0 01.046-2.194c.332-.494.874-.848 1.503-.98l7.926-1.721.29 1.052-7.875 1.72c-.313.07-.583.246-.752.49a.992.992 0 00.057 1.208c.292.355.795.519 1.276.415l7.925-1.72.291 1.06-7.926 1.712a2.611 2.611 0 01-.63.062z"/><path fill="#167BF7" d="M306.885 250.5c-.752-.004-1.455-.456-1.885-1.21l.943-.796c.275.477.76.7 1.225.565l8.559-2.559.273 1.372-8.568 2.547a1.675 1.675 0 01-.547.08zm2.296 7H308c.02-.973.776-1.794 1.796-1.95l8.92-2.05.284 1.085-8.921 2.05c-.487.037-.87.406-.898.865zm-47.362-5a2.67 2.67 0 01-1.645-.561l-24.768-19.03a1.026 1.026 0 01-.375-1.066 1.05 1.05 0 01.842-.77l30.792-5.557a1.1 1.1 0 01.77.152l28.057 17.726c.374.223.569.648.491 1.069a1.047 1.047 0 01-.841.834l-32.74 7.108c-.19.055-.385.087-.583.095zm-25.46-20.295l24.555 18.82c.343.272.796.374 1.226.276l32.457-7.079-27.766-17.508-30.472 5.49z"/><path fill="#167BF7" d="M261.934 255.5c-.59 0-1.162-.203-1.628-.576l-24.438-19.76a2.345 2.345 0 01-.78-2.463l.328-1.201 1.127.338-.328 1.191c-.117.436.03.902.376 1.182l24.447 19.76c.344.276.79.378 1.214.278l31.72-7.259a.96.96 0 00.703-.526 1.11 1.11 0 00.097-.894l-.174-.595 1.118-.358.183.596c.186.62.113 1.294-.202 1.857a2.253 2.253 0 01-1.465 1.102l-31.72 7.258a2.298 2.298 0 01-.578.07z"/><circle cx="262" cy="250" r="1" fill="#167BF7"/><path fill="#3750D7" d="M290 244c0 .27-.445.49-1 .49-.555 0-1-.22-1-.49s.445-.49 1-.49c.555 0 1 .22 1 .49z"/><path fill="#167BF7" d="M267 227.995c0 .27-.445.49-1 .49-.555 0-1-.22-1-.49s.453-.48 1-.48c.547 0 1 .21 1 .48zm-26 4.01c0 .26-.445.48-1 .48-.555 0-1-.22-1-.48s.453-.49 1-.49c.547 0 1 .22 1 .49zm37.698 8.112l-21.913 4.354a3.162 3.162 0 01-1.483-.153c-.403-.163-.403-.359 0-.435l21.913-4.354a3.162 3.162 0 011.483.153c.403.152.403.359 0 .435zm4.029 1l-21.948 4.354c-.496.068-1 .016-1.477-.152-.403-.153-.403-.36 0-.436l21.948-4.353c.496-.07 1-.018 1.477.152.364.163.364.36 0 .435zm1.964 2.005l-21.915 4.342c-.495.078-.998.03-1.474-.141-.403-.163-.403-.358 0-.445l21.915-4.342c.494-.078.998-.03 1.474.141.412.13.412.326 0 .445zM439.986 274.5a4.182 4.182 0 01-1.002-.127c-4.325-.98-6.167-8.125-4.194-16.19a23.172 23.172 0 014.615-9.516c2.132-2.47 4.495-3.547 6.628-3.048 2.132.5 3.734 2.52 4.495 5.665a22.914 22.914 0 01-.3 10.525c-1.863 7.419-6.188 12.691-10.242 12.691zm5.006-27.803c-1.472 0-3.104.98-4.666 2.744a22.036 22.036 0 00-4.345 9.026c-1.762 7.164-.25 13.916 3.284 14.7 3.534.784 8.01-4.518 9.771-11.681.874-3.26.98-6.671.31-9.977-.65-2.685-1.932-4.39-3.594-4.782a3.964 3.964 0 00-.8-.03h.04z"/><path fill="#167BF7" d="M436.963 271.5c-.324 0-.647-.038-.963-.116l.266-1.155c3.668.97 8.006-4.637 9.17-9.857.69-3.018.583-6.18-.311-9.138-.798-2.513-2.119-4.23-3.531-4.58l.266-1.154c1.779.456 3.402 2.454 4.328 5.355a19.16 19.16 0 01.33 9.789c-.681 3.175-2.227 6.069-4.447 8.324-1.355 1.473-3.171 2.373-5.108 2.532z"/><path fill="#167BF7" d="M439.003 274.5l-7.076-1.636c-2.117-.5-3.708-2.473-4.463-5.572a22.27 22.27 0 01.308-10.336c1.988-7.91 6.858-13.338 11.161-12.337l7.067 1.645-.278 1.136-7.077-1.636c-3.508-.818-7.95 4.436-9.7 11.471a21.14 21.14 0 00-.298 9.787c.646 2.647 1.908 4.312 3.568 4.697l7.066 1.684-.278 1.097z"/><path fill="#167BF7" d="M430.482 271.5l-8.691-2.117c-2.066-.51-3.602-2.518-4.336-5.674a23.72 23.72 0 01.29-10.525c1.931-8.055 6.673-13.582 10.844-12.563l8.411 2.048-.27 1.166-8.411-2.077c-3.419-.833-7.725 4.517-9.425 11.681a22.553 22.553 0 00-.3 9.966c.628 2.695 1.864 4.39 3.467 4.783l8.691 2.116-.27 1.196z"/><path fill="#167BF7" d="M430.999 258.5c-.156 0-.312-.021-.463-.062a1.996 1.996 0 11.926-3.883c.52.12.97.446 1.245.904.277.452.362.995.237 1.51a1.997 1.997 0 01-1.945 1.531zm0-2.743a.767.767 0 00-.391.102.735.735 0 00-.33.463.74.74 0 001.441.349.712.712 0 00-.08-.564.714.714 0 00-.465-.33.494.494 0 00-.175-.02zm-.095 10.703c-1.116-.22-1.904-1.039-1.904-1.98 0-.942.788-1.76 1.904-1.98.594.007 1.151.236 1.514.62.376.38.578.856.571 1.344.059.496-.127.991-.517 1.374-.39.382-.95.62-1.555.662l-.013-.04zm0-2.718c-.273 0-.57.305-.57.743 0 .437.31.733.583.733.273 0 .583-.306.57-.743a.843.843 0 00-.223-.57.511.511 0 00-.36-.163zm1.834-12.242a1.8 1.8 0 01-.78-.17 1.744 1.744 0 01-.916-1.191 2.118 2.118 0 01.237-1.468c.261-.652.897-1.105 1.634-1.164.738-.06 1.447.284 1.822.885.375.6.35 1.35-.064 1.928-.367.696-1.108 1.148-1.933 1.18zm.452-2.722a.886.886 0 00-.69.489.935.935 0 00-.102.617c.013.121.084.23.193.297.226.107.621-.064.848-.457.226-.393.124-.808-.09-.915a.397.397 0 00-.16-.031zm5.289-2.281c-.537.027-1.05-.14-1.31-.428s-.217-.642.108-.903c.272-.272.646-.5 1.092-.666l.689.666c-.32.119-.566.299-.7.512.275.022.552-.021.776-.12.426-.16.568-.312.568-.352l1.093-.426c.273.264.273.6 0 .865-.242.243-.58.444-.983.586a3.763 3.763 0 01-1.333.266zm-4.845 27.003l-.397-1.18c0-.06 0-.378-.138-.838-.075-.266-.2-.469-.352-.566-.018.412.032.824.145 1.18l-.63.743c-.339-1.038-.39-2.584.089-3.139.256-.267.567-.267.824 0 .259.235.477.604.628 1.062.302 1.098.265 2.242-.17 2.738zm-13.81-6l-36.857-11.104c-4.263-1.294-6.767-5.555-5.735-9.76l.978-3.834c1.051-4.173 5.235-6.87 9.62-6.2l38.17 5.973-.196 1.136-38.169-5.964c-3.765-.578-7.359 1.737-8.26 5.32l-.979 3.787c-.889 3.606 1.244 7.265 4.894 8.396l36.867 11.105-.333 1.145z"/><path fill="#167BF7" d="M387.031 257.5c-4.3-1.431-6.814-5.902-5.811-10.332l.969-3.99c1.127-4.376 5.346-7.21 9.811-6.594l-.184 1.165a7.67 7.67 0 00-8.533 5.7l-.969 3.991c-.863 3.837 1.327 7.703 5.056 8.924l-.339 1.136zm-7.747-5l-21.296-6.448c-2.848-.874-4.521-3.737-3.834-6.564l.682-2.758c.7-2.802 3.494-4.613 6.423-4.161L383 235.971l-.198 1.163-21.691-3.412c-2.307-.354-4.507 1.07-5.06 3.277l-.682 2.768c-.548 2.223.77 4.48 3.014 5.16l21.297 6.458-.396 1.115z"/><path fill="#167BF7" d="M361.839 247.5c-2.732-.835-4.341-3.562-3.698-6.264l.657-2.685c.7-2.676 3.382-4.402 6.202-3.99l-.176 1.073c-2.245-.342-4.387 1.04-4.926 3.177l-.666 2.685c-.522 2.157.758 4.34 2.94 5.01l-.333.994zm53.313 18c-4.427-12.01 5.326-23.884 5.426-24l.422.388c-.1.116-9.624 11.728-5.325 23.399l-.523.213zm-5.178-2c-3.97-11.86 5.473-23.87 5.57-24l.456.38c-.097.12-9.326 11.88-5.473 23.42l-.553.2z"/><path fill="#167BF7" d="M418.62 265.5c-.224-.195-5.574-4.637-5.62-8h.567c.074 3.142 5.387 7.584 5.433 7.643l-.38.357zm-1.055-5c-.164-.213-4.02-5.218-3.52-8l.544.098c-.454 2.524 3.375 7.502 3.411 7.555l-.435.347zm.081-3c-.091-.225-2.174-5.455-1.519-8l.38.173c-.596 2.32 1.473 7.524 1.493 7.576l-.354.251zm1.344-4l-.26-.061h-.26c0-.052-.087-.262-.156-.471-.867-2.287-1.733-5.089-1.092-6.468l.485.218c-.606 1.362.676 4.905 1.1 6.11.2.532.208.567.182.672zm-1.99 11s-1.778-1.12-2-2m5.988-11l-.326-.206.166.098-.172.05s-.029-.138-.052-.275c-.223-1.175-.887-4.758-.469-6.667l.326.215c-.251 1.136-.091 3.24.475 6.266.07.392.075.411.052.519zm.492-4c0-.15-.881-3.578-.256-6l.512.15c-.6 2.282.255 5.664.264 5.7l-.52.15zm.842-2a12.429 12.429 0 01-.13-4l.58.21a11.63 11.63 0 00.14 3.639l-.59.151zm-7.73 19c-.227-.25-5.52-6.2-5.592-10h.554c.072 3.61 5.373 9.57 5.446 9.63l-.408.37z"/><path fill="#167BF7" d="M413.514 259.5c-.165-.213-3.973-5.333-3.468-8l.583.098c-.466 2.462 3.332 7.582 3.371 7.635l-.486.267z"/><path fill="#167BF7" d="M412.66 256.5c-.092-.214-2.179-5.336-1.538-8l.373.186c-.576 2.412 1.485 7.45 1.505 7.535l-.34.279zm3.196-3l-.329-.172c-.506-1.42-2.043-6.074-1.35-7.828l.472.229c-.49 1.24.422 4.767 1.351 7.37l-.236.115.22-.114-.128.4zm-5.152 11c-.063-.103-1.514-2.418-1.704-3.851l.423-.149c.38 1.304.917 2.473 1.577 3.438l-.296.562zm5.972-14.037a.323.323 0 01-.294-.192c-.477-1.217-1.897-5.069-1.187-6.771l.578.201c-.517 1.217.325 4.2 1.197 6.406.037.072.04.155.007.23a.306.306 0 01-.18.163l-.12-.037z"/><path fill="#167BF7" d="M416.578 247.5c0-.158-.94-3.775-.423-6l.43.14c-.488 2.076.408 5.667.415 5.702l-.422.158zm1.842-2c0-.114-.66-2.829-.325-4l.58.187a10.618 10.618 0 00.325 3.668l-.58.145zm-48.625 5c-3.05-6.509 3.654-12.938 3.718-13l.487.353c-.064.062-6.514 6.253-3.612 12.453l-.593.194z"/><path fill="#167BF7" d="M367.535 248.5c-2.178-6.436 2.992-12.936 3.045-13l.42.355c0 .063-5.027 6.363-2.947 12.463l-.518.182z"/><path fill="#167BF7" d="M370.552 249.5c-.135-.119-3.496-2.883-3.552-5h.639c0 1.898 3.361 4.562 3.361 4.617l-.448.383z"/><path fill="#167BF7" d="M368.643 246.5c-.076-.129-1.864-3.315-1.62-5l.456.101c-.175 1.207 1.057 3.684 1.521 4.604l-.357.295zm1.839-1c-.078-.135-1.955-3.32-1.369-5l.567.193c-.41 1.187.812 3.658 1.32 4.508l-.518.299zm.42-2l-.245-.166c-.214-.87-.888-3.73-.576-4.834l.343.244c-.19.664.153 2.666.576 4.365l-.098.391zm-.073-.283l.171-.117-.171.117zm-3.057 7.283c-.33-.527-.593-1.168-.772-1.88l.317-.12a5.73 5.73 0 00.683 1.596l-.228.404z"/><path fill="#167BF7" d="M370.862 242.5l-.275-.204c-.203-.85-.811-3.57-.5-4.796l.413.237c-.21.806.138 2.838.5 4.3l-.138.463zm-.087-.333l.21-.119-.21.119zm.652-3.667a8.934 8.934 0 01-.336-4l.573.156a8.637 8.637 0 00.336 3.669l-.573.175zm.893-1a4.419 4.419 0 01-.19-2l.58.153a4.16 4.16 0 00.2 1.702l-.59.145zm65.326 32a1.39 1.39 0 01-.39-.047 1.52 1.52 0 01-.78-.455 1.696 1.696 0 010-2.357s3.438-3.546 4.282-7.807c.086-.434.337-.815.698-1.058a1.61 1.61 0 011.817.01c.549.376.823 1.053.696 1.716-1.052 5.3-5.026 9.348-5.189 9.515a1.614 1.614 0 01-1.134.483zm-.136-1.142a.545.545 0 00.499-.14c.163-.167 3.901-3.982 4.88-8.938a.53.53 0 00-.807-.567.548.548 0 00-.226.344c-.908 4.641-4.537 8.354-4.59 8.354a.555.555 0 000 .77c.067.1.166.172.28.205l-.036-.028zm7.778-11.888a1.75 1.75 0 01-.395-.048 1.748 1.748 0 01-1.298-1.423 9.996 9.996 0 00-.46-2.047c-.18-.43-.18-.916 0-1.346.16-.435.481-.786.892-.974a1.661 1.661 0 011.298 0c.42.166.759.5.94.926.348.967.59 1.97.725 2.992.1.948-.539 1.81-1.449 1.95l-.253-.03zm-.132-1.208a.515.515 0 00.207 0 .572.572 0 00.47-.643 12.325 12.325 0 00-.64-2.671.533.533 0 00-.3-.293.492.492 0 00-.424 0 .545.545 0 00-.291.312.637.637 0 000 .439c.267.763.453 1.554.555 2.359.031.231.195.42.413.477l.01.02zm26.489-39.762h-93.629a4.016 4.016 0 01-4.016-4.005v-91.98a4.002 4.002 0 014.074-4.014l19.496.307h74.075a3.354 3.354 0 013.355 3.353V212.1a3.359 3.359 0 01-3.356 3.401zm-93.629-98.85a2.875 2.875 0 00-2.875 2.875v91.98a2.875 2.875 0 002.875 2.874h93.629a2.194 2.194 0 002.185-2.194v-92.938a2.195 2.195 0 00-2.185-2.194H397.56l-19.505-.297-.039-.105z"/><path fill="#167BF7" d="M449.676 210.5l-60.512-.114-2.934.057a3.124 3.124 0 01-2.31-.947 3.147 3.147 0 01-.89-2.341l.057-1.515v-79.098l-.085-2.611c-.031-.901.305-1.776.93-2.423s1.486-1.011 2.384-1.008h63.36a3.33 3.33 0 013.324 3.335v83.291c.01.892-.336 1.75-.96 2.384a3.323 3.323 0 01-2.364.99zm-60.521-1.277l60.521.114a2.168 2.168 0 002.165-2.172v-83.349c0-.576-.228-1.128-.634-1.536a2.163 2.163 0 00-1.53-.636h-63.361a2.163 2.163 0 00-2.156 2.23l.086 2.64v79.145l-.067 1.544c-.02.55.185 1.085.57 1.478.384.393.913.61 1.462.6l2.944-.058z"/><path fill="#167BF7" d="M444.602 206.5h-55.204c-1.877 0-3.398-1.511-3.398-3.375v-74.25c0-1.864 1.521-3.375 3.398-3.375h55.204c1.877 0 3.398 1.511 3.398 3.375v74.25c0 1.864-1.521 3.375-3.398 3.375zm-55.204-79.872a2.217 2.217 0 00-2.214 2.208v74.25c0 1.215.991 2.199 2.214 2.199h55.204a2.206 2.206 0 002.214-2.199v-74.25c0-1.215-.99-2.202-2.214-2.208h-55.204z"/><path fill="#167BF7" d="M441.619 201.5H393.38c-1.867 0-3.381-1.484-3.381-3.316v-64.368c0-1.832 1.514-3.316 3.381-3.316h48.238c1.867 0 3.381 1.484 3.381 3.316v64.368c0 1.832-1.514 3.316-3.381 3.316zm-48.238-69.844c-1.214.005-2.197.969-2.202 2.16v64.368c0 1.195.984 2.165 2.202 2.17h48.238c1.218-.005 2.202-.975 2.202-2.17v-64.368c-.005-1.191-.988-2.155-2.202-2.16H393.38z"/><path fill="#167BF7" d="M442.39 130.766l3.17-4.53.96.672-3.17 4.53zm-55.131-3.813l.906-.746 3.495 4.246-.905.746zm55.048 73.819l.932-.713 3.34 4.37-.932.712zm-55.119 3.637l3.634-4.129.88.776-3.634 4.128zm83.138-82.909h-11.68c-.357 0-.646-.224-.646-.5s.29-.5.646-.5h11.708c.357 0 .646.224.646.5s-.29.5-.646.5h-.028zm0 3h-11.68c-.357 0-.646-.224-.646-.5s.29-.5.646-.5h11.708c.357 0 .646.224.646.5s-.29.5-.646.5h-.028zm0 2h-11.68c-.357 0-.646-.224-.646-.5s.29-.5.646-.5h11.708c.357 0 .646.224.646.5s-.29.5-.646.5h-.028zm-1.664 83.996H457.1c-.622-.045-1.099-.478-1.099-.996s.477-.95 1.099-.996h11.591c.454-.033.891.149 1.13.47.24.323.24.73 0 1.051-.239.322-.676.504-1.13.471h-.028zm-11.563-1.084a.073.073 0 00-.05.018.048.048 0 00-.015.043c0 .03.03.054.065.054h11.591a.072.072 0 00.052-.013.05.05 0 00.022-.04.048.048 0 00-.018-.047.07.07 0 00-.056-.015h-11.591zm13.279-29.912h-13.756c-.896 0-1.622-.694-1.622-1.549v-13.902c0-.855.726-1.549 1.622-1.549h13.756c.896 0 1.622.694 1.622 1.549v13.931c-.017.844-.738 1.52-1.622 1.52zm-13.756-15.804a.373.373 0 00-.38.353v13.931a.372.372 0 00.38.353h13.756a.372.372 0 00.37-.353v-13.93a.362.362 0 00-.37-.353h-13.756z"/><path fill="#167BF7" d="M464.563 173.5h-3.098a1.462 1.462 0 01-1.465-1.465v-3.06c0-.811.655-1.47 1.465-1.475h3.07c.81.005 1.465.664 1.465 1.474v3.06c0 .8-.64 1.45-1.437 1.466zm-3.098-4.869a.344.344 0 00-.334.343v3.06a.337.337 0 00.334.335h3.07a.338.338 0 00.236-.098.338.338 0 00.098-.236v-3.06a.344.344 0 00-.334-.344h-3.07zM463 144.5a6 6 0 116-6 6.01 6.01 0 01-6 6zm0-10.81a4.81 4.81 0 104.81 4.81 4.81 4.81 0 00-4.81-4.732v-.078z"/><path fill="#167BF7" d="M464 133.5h1v5h-1zm-1 28a6 6 0 116-6 6.01 6.01 0 01-6 6zm0-10.81a4.81 4.81 0 10.001 9.621 4.81 4.81 0 00-.001-9.621z"/><path fill="#167BF7" d="M457.564 151.499a1.566 1.566 0 01-.95-.329 1.64 1.64 0 01-.304-2.24c1.573-2.158 4.054-3.43 6.69-3.43s5.117 1.272 6.69 3.43a1.64 1.64 0 01-.305 2.24 1.54 1.54 0 01-1.16.316 1.559 1.559 0 01-1.035-.618 5.192 5.192 0 00-4.19-2.145c-1.65 0-3.204.795-4.19 2.145-.25.34-.624.56-1.037.613l-.209.018zm5.436-4.915a7.227 7.227 0 00-5.836 3.004.502.502 0 00.095.72.482.482 0 00.375.107.547.547 0 00.331-.205c1.179-1.632 3.048-2.595 5.035-2.595s3.856.963 5.035 2.595a.499.499 0 00.706.098.498.498 0 00.2-.339.499.499 0 00-.105-.38 7.226 7.226 0 00-5.845-3.005H463zm-5.434-12.084a1.573 1.573 0 01-1.4-.891 1.638 1.638 0 01.145-1.678c1.573-2.159 4.053-3.431 6.689-3.431s5.116 1.272 6.689 3.431a1.64 1.64 0 01.146 1.678 1.575 1.575 0 01-1.4.891 1.523 1.523 0 01-1.246-.64 5.191 5.191 0 00-4.189-2.145c-1.65 0-3.203.795-4.19 2.145a1.538 1.538 0 01-1.035.622l-.21.018zm5.434-4.924a7.25 7.25 0 00-5.835 3.004.525.525 0 00.096.729.507.507 0 00.374.098.496.496 0 00.331-.196 6.214 6.214 0 015.034-2.596c1.987 0 3.855.964 5.034 2.596a.51.51 0 00.4.205.477.477 0 00.305-.107.524.524 0 00.096-.729 7.25 7.25 0 00-5.844-3.004H463z"/><path fill="#167BF7" d="M464 150.5h1v5h-1zm-6.11-18.645l.96-.674.664.945-.96.674zM464 130.5h1v1h-1zm4.351 1.637l.663-.944.96.675-.662.943zm-10.457 16.185l.96-.674.663.945-.96.673zM464 145.5h1v1h-1zm4.344 3.105l.663-.944.96.673-.663.945zM463 207.5a6 6 0 116-6 6.01 6.01 0 01-6 6zm0-10.81a4.81 4.81 0 10.001 9.621 4.81 4.81 0 00-.001-9.621z"/><path fill="#167BF7" d="M457.564 198.499a1.566 1.566 0 01-.95-.329 1.64 1.64 0 01-.304-2.24c1.573-2.158 4.054-3.43 6.69-3.43s5.117 1.272 6.69 3.43a1.64 1.64 0 01-.305 2.24 1.54 1.54 0 01-1.16.316 1.559 1.559 0 01-1.035-.618 5.192 5.192 0 00-4.19-2.145c-1.65 0-3.204.795-4.19 2.145-.25.34-.624.56-1.037.613l-.209.018zm5.436-4.915a7.227 7.227 0 00-5.836 3.004.502.502 0 00.095.72.482.482 0 00.375.107.547.547 0 00.331-.205c1.179-1.632 3.048-2.595 5.035-2.595s3.856.963 5.035 2.595a.499.499 0 00.706.098.498.498 0 00.2-.339.499.499 0 00-.105-.38 7.226 7.226 0 00-5.845-3.005H463z"/><path fill="#167BF7" d="M464 196.5h1v5h-1zm-6.33 1.376l.962-.669.657.946-.962.669zM464 193.5h1v1h-1zm4.325 2.35l.663-.944.96.674-.662.944zm1.19-5.35h-4.03c-.82 0-1.485-.683-1.485-1.526v-7.948c0-.843.665-1.526 1.485-1.526h4.03c.394 0 .772.16 1.05.447.279.286.435.674.435 1.079v7.948c0 .843-.665 1.526-1.485 1.526zm-4.03-9.822a.344.344 0 00-.339.348v7.948c0 .192.152.348.339.348h4.03a.353.353 0 00.339-.348v-7.948a.353.353 0 00-.339-.348h-4.03z"/><path fill="#167BF7" d="M465 184.5h6v1h-6zm-4.515 6h-3.998c-.821 0-1.487-.683-1.487-1.526v-7.948c0-.843.666-1.526 1.487-1.526h4.026c.395 0 .773.16 1.052.447.278.286.435.674.435 1.079v7.948c0 .41-.16.802-.445 1.09-.285.286-.67.444-1.07.436zm-3.998-9.822a.353.353 0 00-.349.348v7.948c.006.193.16.348.349.348h4.026c.19 0 .343-.155.349-.348v-7.948a.354.354 0 00-.349-.348h-4.026z"/><path fill="#167BF7" d="M456 184.5h6v1h-6zm7.525-19h-1.05a.476.476 0 01-.41-.255.546.546 0 01-.004-.509l.524-.98a.476.476 0 01.415-.256c.171 0 .33.098.415.257l.524.98a.544.544 0 01-.004.508.476.476 0 01-.41.255zm-.525 10a.475.475 0 01-.414-.257l-.523-.972a.556.556 0 010-.514.472.472 0 01.414-.257h1.046a.467.467 0 01.414.257.556.556 0 010 .514l-.523.972a.474.474 0 01-.414.257zm4.514-5a.586.586 0 01-.257-.065.47.47 0 01-.257-.413v-1.045c0-.17.098-.328.257-.413a.55.55 0 01.514 0l.972.523c.16.084.258.242.257.413a.481.481 0 01-.257.413l-.972.522a.604.604 0 01-.257.065zm-8.028 0a.583.583 0 01-.25-.064l-.979-.523a.48.48 0 01-.257-.413.466.466 0 01.257-.412l.98-.523a.523.523 0 01.506 0c.16.084.258.242.257.413v1.045c0 .17-.098.327-.257.413a.599.599 0 01-.257.064zm-42.486 2a9 9 0 11.001-18 9 9 0 01-.002 18zm0-16.69a7.74 7.74 0 10-.058 15.482A7.74 7.74 0 00417 155.81z"/><path fill="#167BF7" d="M416.5 182.5c-10.217 0-18.5-8.283-18.5-18.5s8.283-18.5 18.5-18.5S435 153.783 435 164c-.032 10.204-8.296 18.468-18.5 18.5zm0-35.9c-9.583 0-17.354 7.765-17.36 17.348-.008 9.583 7.751 17.36 17.334 17.374 9.583.014 17.365-7.739 17.387-17.322.005-9.595-7.766-17.38-17.361-17.39v-.01z"/><path fill="#167BF7" d="M411.855 190.5c-13.788-2.923-23.16-15.907-21.707-30.072 1.454-14.165 13.264-24.928 27.352-24.928 14.088 0 25.898 10.763 27.352 24.928 1.453 14.165-7.919 27.149-21.707 30.072l-.24-1.156c13.128-2.8 22.043-15.173 20.65-28.663-1.393-13.49-12.642-23.736-26.06-23.736s-24.667 10.246-26.06 23.736c-1.392 13.49 7.522 25.863 20.65 28.663l-.23 1.156z"/><path fill="#167BF7" d="M411.756 192.5c-10.124-1.931-18.625-8.509-22.756-17.609l1.139-.391c3.98 8.728 12.143 15.033 21.861 16.885l-.244 1.115zm11.488 0l-.244-1.157c9.739-1.845 17.912-8.14 21.87-16.843l1.13.476c-4.114 9.06-12.62 15.61-22.756 17.524zm20.682-40c-4.606-10.775-14.973-17.732-26.421-17.732-11.449 0-21.815 6.957-26.421 17.732l-1.084-.488c4.77-11.243 15.568-18.512 27.5-18.512s22.73 7.269 27.5 18.512l-1.074.488zm-26.426 14c-.276 0-.5-.279-.5-.622v-2.756c0-.343.224-.622.5-.622s.5.279.5.622v2.725a.724.724 0 01-.138.46.46.46 0 01-.362.193z"/><path fill="#167BF7" d="M419.373 164.5h-2.746c-.346 0-.627-.224-.627-.5 0-.133.066-.26.184-.354a.718.718 0 01.443-.146h2.746c.346 0 .627.224.627.5 0 .133-.066.26-.184.354a.718.718 0 01-.443.146zm-15.209 2.944h-2.339a.826.826 0 01-.714-.446.946.946 0 01-.002-.885l1.17-2.164c.145-.277.419-.449.716-.449s.57.172.716.449l1.18 2.22a.946.946 0 01-.002.885.825.825 0 01-.714.446l-.01-.056zm-1.549-1.376h.76l-.38-.71-.38.71zm32.558-1.568h-2.346a.825.825 0 01-.716-.454.976.976 0 01-.002-.9l1.173-2.201c.15-.276.423-.445.718-.445s.568.17.718.445l1.173 2.202a.976.976 0 01-.002.9.826.826 0 01-.716.453zm-1.553-1.388h.76l-.38-.722-.38.722zm4.565 12.388h-2.35a.823.823 0 01-.721-.448.969.969 0 01-.005-.902l1.17-2.196c.148-.281.423-.454.721-.454s.573.173.722.454l1.17 2.196a.972.972 0 01-.006.902.82.82 0 01-.722.448h.021zm-1.549-1.396h.77l-.38-.72-.39.72zm-41.456-9.674a2.17 2.17 0 01-1.74-.905 2.343 2.343 0 01-.358-1.981l.871-3.175v-.12l1.198-6.765c.364-2.063 1.779-3.76 3.696-4.435l3.477-1.22a1.18 1.18 0 00.344-.189l4.166-3.224a2.324 2.324 0 011.84-.456l3.83.684c1.172.21 2.377 0 3.419-.595l3.055-1.756a5.966 5.966 0 015.506-.228l10.832 5.129a4.368 4.368 0 012.059 2.063l1.37 2.878c.43.888.309 1.957-.311 2.716a2.341 2.341 0 01-2.535.768c-.917-.294-1.576-1.126-1.675-2.115v-.248c-.07-.621-.566-1.096-1.168-1.121l-1.284-.05c-.66-.028-1.223.496-1.264 1.18l-.143 2.292c-.03.72-.36 1.392-.907 1.839a2.327 2.327 0 01-1.938.483l-4.788-.824a2.388 2.388 0 01-1.712-1.265 2.55 2.55 0 01-.079-2.177l.172-.407a1.277 1.277 0 00-.076-1.19 1.225 1.225 0 00-1.006-.586h-1.56c-.618-.013-1.15.45-1.246 1.082l-.182 1.27c-.161 1.12-1.038 1.982-2.126 2.093l-3.017.317a2.357 2.357 0 01-1.992-.784l-.45-.506a1.18 1.18 0 00-1.187-.377c-.43.106-.77.443-.89.883l-.633 2.302a2.47 2.47 0 01-.737 1.2l-2.002 1.766a2.292 2.292 0 01-1.101.556l-1.236.248a1.26 1.26 0 00-.957 1.24v.833c.003 1.226-.86 2.269-2.03 2.451l-3.2.496a1.807 1.807 0 01-.306-.07zm13.12-21.3a1.25 1.25 0 00-.738.248l-4.166 3.235c-.203.155-.43.276-.67.357l-3.477 1.23c-1.515.531-2.633 1.872-2.92 3.502l-1.198 6.766c0 .07 0 .149-.057.228l-.872 3.175c-.108.347-.023.729.22.992a.94.94 0 00.958.347l3.2-.506c.6-.085 1.044-.622 1.033-1.25v-.833c0-1.179.8-2.195 1.916-2.43l1.235-.249c.208-.04.403-.136.565-.278l1.973-1.785c.183-.162.316-.376.383-.615l.632-2.292a2.434 2.434 0 011.747-1.717 2.343 2.343 0 012.304.725l.46.506c.257.295.633.446 1.015.407l3.017-.318a1.238 1.238 0 001.082-1.071l.182-1.27c.183-1.238 1.224-2.143 2.432-2.113h1.561a2.39 2.39 0 011.964 1.15 2.6 2.6 0 01.162 2.332l-.181.397c-.153.36-.136.775.047 1.12.174.348.498.588.872.646l4.788.823c.34.061.69-.033.958-.258.273-.217.441-.547.46-.903l.153-2.291c.076-1.3 1.117-2.314 2.375-2.312h1.369c1.184.046 2.158.983 2.29 2.202v.239c.038.366.23.697.526.902.296.217.67.284 1.018.184.35-.1.636-.357.783-.7.158-.341.158-.74 0-1.081l-1.36-2.877a3.205 3.205 0 00-1.504-1.498l-10.822-5.13a4.826 4.826 0 00-4.463.18L416.497 143a6.17 6.17 0 01-4.185.735l-3.83-.685-.182.08zM391 132.5h53v1h-53zm35 58h18v1h-18zm-36 0h18v1h-18zm6.04-47.588l.022-.021 1.741 1.74-.021.022zm9.603-6.466l.03-.01.758 2.354-.029.009zm-5.093 2.698l.027-.017 1.303 2.089-.026.016zm10.437-4.335l.03-.006.502 2.41-.029.006zm2.849-.433l.03-.004.26 2.447-.03.004zm-5.568.957l.029-.008.69 2.363-.03.008zm-5.312 2.371l.026-.014 1.134 2.186-.026.014zm-4.862 3.306l.023-.02 1.652 1.824-.022.02zm-1.492 5.49c-.086-.103-1.032-.964-1.602-1.487l.266-.513c1.718 1.559 1.718 1.559 1.734 1.723l-.234.051-.188-.195.188.195-.164.226zm-4.375 1.131l.014-.026 2.187 1.148-.014.027zm-1.404 2.557l.013-.029 2.256.983-.012.028zm-.753 2.781l.011-.028 1.855.666-.01.029zm.025 3.031l.01-.028.967.32-.01.028zm5.951 27.937l1.686-1.686.021.02-1.686 1.687zm9.6 6.472l.734-2.279.03.01-.735 2.278zm-5.098-2.743l1.262-2.022.026.016-1.262 2.022zm7.706 3.684l.666-2.29.029.008-.667 2.29zm-5.297-2.222l1.099-2.116.027.014-1.099 2.116zm-4.852-3.29l1.6-1.769.023.02-1.6 1.769zm-2.833-3.338l-.272-.263c.568-.258 1.512-.69 1.6-.737l.16.121h.24c-.008.105-.008.105-1.728.879zm-3.025-3.303l2.136-1.122.014.027-2.136 1.121zm-1.443-2.543l2.177-.949.013.029-2.178.948zm-.822-3.853l1.817-.657.01.029-1.816.657zm.085-1.906l.968-.319.01.029-.969.318zm45.829-26.265l1.741-1.742.021.021-1.74 1.742zm-8.642-5.864l.757-2.352.029.009-.758 2.352zm4.549 2.461l1.303-2.09.025.016-1.303 2.09zm-9.634-4.038l.503-2.41.029.006-.503 2.41zm-1.291 2.114l.27-2.437.03.003-.27 2.437zm3.826-1.473l.687-2.364.03.008-.688 2.364zm4.858 2.053l1.134-2.185.027.014-1.134 2.184zm4.357 2.945l1.652-1.826.022.02-1.652 1.826zm4.471 3.672l-.157-.235-.233-.05c0-.164 0-.164 1.728-1.715l.272.51c-.584.53-1.525 1.388-1.61 1.49zm.858 2.285l2.189-1.15.014.028-2.189 1.149zm1.372 2.309l2.257-.983.013.028-2.258.983zm1.132 2.554l1.855-.666.01.028-1.855.666zm.518 4.177l.968-.316.009.028-.968.316zm-6.312 24.458l.021-.02 1.673 1.672-.02.021zm-8.67 5.88l.03-.01.735 2.28-.03.01zm4.562-2.511l.026-.016 1.252 2.006-.026.016zm-7.114 3.454l.029-.008.67 2.299-.03.008zm4.882-2.025l.027-.014 1.093 2.109-.026.013zm4.362-3.003l.022-.02 1.588 1.753-.023.02zm5.733-1.578c-1.69-.772-1.69-.772-1.713-.857l.239-.027.191.1-.191-.1.167-.116c.088.053 1.02.481 1.594.735l-.287.265zm-.385-4.381l.014-.027 2.11 1.109-.014.027zm1.365-2.357l.012-.028 2.187.952-.012.027zm1.11-2.507l.01-.029 1.792.643-.01.029zm.934-2.665l.01-.028.793.261-.01.029zM417 133.5h1v2h-1zm7 68h-13l.597-11.502c.049-.839.724-1.495 1.544-1.498h8.718c.82.003 1.495.66 1.544 1.498L424 201.5zm-11.824-1.14h10.648l-.542-10.306a.419.419 0 00-.423-.405h-8.718a.419.419 0 00-.423.405l-.542 10.306zm55.053 26.14h-85.477c-.966-.005-1.747-.73-1.752-1.627v-3.746c0-.899.784-1.627 1.752-1.627h85.496c.968 0 1.752.728 1.752 1.627v3.746c-.003.434-.19.849-.523 1.154-.332.305-.78.475-1.248.473zm-85.477-5.91c-.32 0-.578.24-.578.537v3.746c0 .296.259.536.578.536h85.496c.32 0 .578-.24.578-.536v-3.746c0-.296-.259-.536-.578-.536h-85.496z"/><path fill="#3750D7" d="M453.81 215.333l.394-1.105 13.336 4.745-.393 1.105z"/><path fill="#167BF7" d="M378.977 220.396l13.305-4.67.386 1.101-13.304 4.672zM448 263.5v-1.203l42.498-1.577 24.167-10.341.284-9.858a1.05 1.05 0 01.687-.966.985.985 0 011.107.335v.069l2.257 3.943-.944.611-1.974-3.44-.284 10.124-25.054 10.716L448 263.5z"/><path fill="#167BF7" d="M516.76 245.5l-24.691-4.661-.048-.017-22.349-8.192-30.307 7.92h-.087L403 240.094l.019-1.068 36.192.455 30.519-7.981 22.675 8.314L517 244.449zm-65.28-1.143l.412-1.098 33.377 12.513-.412 1.099zm64.214 6.307l3.374-6.418 1.038.546-3.374 6.417z"/><path fill="#167BF7" d="M468.365 245.711l21.156-5.749.307 1.133-21.156 5.748zm-20.32 2.896l7.9-.72.106 1.167-7.9.72zM308.521 134.5c-5.173-2.342-43.11-19.757-43.521-19.93l.489-1.07c.383.173 38.319 17.588 43.511 19.93l-.479 1.07z"/><path fill="#167BF7" d="M332.543 242.48a27.038 27.038 0 01-7.73-1.138L311.1 237.23l.325-1.12 13.723 4.102a25.67 25.67 0 007.395 1.09c8.411.018 16.32-4.042 21.27-10.918 4.951-6.876 6.343-15.735 3.743-23.824l-17.836-55.558c-3.606-11.185-11.621-20.366-22.15-25.37L271 103.57l.496-1.071 46.561 22.061c10.814 5.144 19.052 14.57 22.77 26.056l17.836 55.616c2.708 8.445 1.252 17.691-3.916 24.868-5.169 7.176-13.424 11.415-22.204 11.399v-.02zM102.144 168.5l-1.144-.243 5.986-29.42c2.039-9.888 8.6-18.187 17.653-22.325L190.523 86.5l.477 1.087-65.884 29.983c-8.72 3.985-15.035 11.983-16.986 21.51l-5.986 29.42zm12.345 65.928l.163-1.161 20.634 2.9-.163 1.161z"/><path fill="#167BF7" d="M147.346 123.657l42.198-17.653.453 1.083-42.198 17.652zM303.364 184.5l-7.364-.973 24.208-23.027.792.903-22.333 21.242 4.542.601 11.964-5.024.435 1.133zm-42.925-66l-.439-1.084c.41-.163.81-.307 1.18-.442 2.615-.96 4.341-1.621 5.56-4.193l2.488-5.978a16.642 16.642 0 001.58-7.025V97.59a3.061 3.061 0 00-1.307-2.61 2.294 2.294 0 00-2.204-.115l-1.805 1.132-.634-.96 1.902-1.189a3.503 3.503 0 013.375.182c1.2.81 1.9 2.16 1.864 3.59v2.187a17.807 17.807 0 01-1.678 7.495l-2.498 5.978c-1.424 3.023-3.54 3.838-6.223 4.798l-1.161.422zm-64.479-7c-2.72-1.995-3.114-3.92-3.77-7.08l-1.748-8.417a21.243 21.243 0 01-.123-7.979l.394-2.223c.245-1.377 1.088-2.517 2.237-3.024 1.148-.506 2.445-.31 3.438.52h.044l.568.599-.717.897-.55-.578c-.7-.569-1.603-.7-2.406-.35-.81.358-1.404 1.163-1.574 2.135l-.393 2.224a19.776 19.776 0 00.122 7.45l1.75 8.416c.655 3.152.961 4.598 3.313 6.333l-.586 1.077z"/><path fill="#167BF7" d="M242.083 122.5a4.566 4.566 0 01-3.699-1.923l-4.699-6.462a8.264 8.264 0 00-12.115-1.433l-6.453 5.558a4.572 4.572 0 01-4.985.644l-11.124-5.404a4.691 4.691 0 01-2.592-3.846l-1.401-17.865a4.66 4.66 0 011.83-4.087l2.993-2.26a4.59 4.59 0 014.575-.548l6.262 2.722a80.787 80.787 0 0040.34 6.279l7.72-.799a4.563 4.563 0 014.346 2.116l2.193 3.442c.734 1.16.923 2.59.514 3.904l-3.955 12.712a4.554 4.554 0 01-3.241 3.105l-15.251 3.99c-.41.108-.834.16-1.258.155zm-15.099-12.981c.363 0 .726.02 1.087.057a9.518 9.518 0 016.548 3.847l4.7 6.461a3.425 3.425 0 003.64 1.318l15.3-3.99a3.437 3.437 0 002.42-2.318l3.956-12.721a3.502 3.502 0 00-.39-2.885l-2.184-3.442a3.41 3.41 0 00-3.25-1.587l-7.73.798a81.832 81.832 0 01-40.863-6.327l-6.263-2.769a3.425 3.425 0 00-3.421.413l-2.993 2.26a3.435 3.435 0 00-1.364 3.096l1.402 17.866a3.489 3.489 0 001.906 2.884l11.124 5.414a3.419 3.419 0 003.727-.49l6.453-5.549a9.481 9.481 0 016.195-2.336z"/><path fill="#167BF7" d="M194.01 92.5c-.119-1.363.912-5.957 2.325-6.952l3.07-2.163c1.362-.951 3.16-1.15 4.72-.525l6.446 2.605A77.625 77.625 0 00220 88.66l-.334 1.078a77.93 77.93 0 01-9.566-3.241l-6.446-2.606a3.766 3.766 0 00-3.532.396l-3.071 2.164c-.883.617-1.963 4.686-1.845 5.957l-1.197.092zm73.582 9l-1.162-.337c.38-1.103.54-5.049 0-5.769l-2.295-3.226c-.731-1.051-2.055-1.634-3.416-1.504l-8.115.757c-2.775.255-5.01.373-7.604.4v-1.148c2.515 0 4.749-.145 7.484-.391l8.125-.757c1.818-.178 3.59.6 4.568 2.005l2.295 3.263c.881 1.212.47 5.686.12 6.707zm-46.067 15.335l2.428-6.954 1.107.386-2.428 6.955zm26.132-1.335c-4.783 0-8.858-3.08-9.566-7.438a8.463 8.463 0 011.971-6.78 10.906 10.906 0 0113.947-2.178 8.242 8.242 0 013.896 5.837 8.312 8.312 0 01-1.983 6.753 10.707 10.707 0 01-6.581 3.651 11.74 11.74 0 01-1.684.155zm.775-16.784c-.525 0-1.05.04-1.569.117a9.532 9.532 0 00-5.864 3.244 7.32 7.32 0 00-1.712 5.81c.65 4.243 5.099 7.07 9.92 6.315a9.408 9.408 0 005.864-3.244 7.11 7.11 0 001.715-5.8 7.054 7.054 0 00-3.36-5.008 9.164 9.164 0 00-4.994-1.443v.01z"/><path fill="#167BF7" d="M247.738 112.498c-4.821 0-8.938-3.525-9.738-8.338l1.195-.19c.802 4.725 5.196 7.928 9.877 7.199a7.651 7.651 0 005.402-3.36 8.834 8.834 0 001.195-6.119l1.185-.19a9.999 9.999 0 01-1.372 6.999 8.757 8.757 0 01-6.223 3.9 9.208 9.208 0 01-1.52.1zm-36.181.002c-.87 0-1.737-.1-2.584-.3a10.748 10.748 0 01-6.311-4.145c-1.46-1.964-1.992-4.47-1.46-6.862 1.123-4.832 6.426-7.663 11.825-6.387 5.4 1.275 8.886 6.213 7.762 11.007-.97 4.03-4.813 6.687-9.232 6.687zm-1.114-16.815c-3.843 0-7.282 2.29-8.098 5.798a7.23 7.23 0 001.268 5.905 9.505 9.505 0 005.63 3.682c4.803 1.13 9.443-1.344 10.413-5.509.97-4.165-2.123-8.465-6.898-9.586a10.095 10.095 0 00-2.315-.29z"/><path fill="#167BF7" d="M212.12 107.5a11.338 11.338 0 01-2.356-.253c-5.351-1.118-8.708-5.91-7.528-10.747l1.183.253c-.978 4.24 1.955 8.414 6.625 9.427 2.172.522 4.488.166 6.345-.976 1.751-1.134 2.97-2.817 3.418-4.718l1.193.253c-.524 2.163-1.916 4.075-3.91 5.369-1.455.919-3.193 1.406-4.97 1.392zm35.88-13h1v4h-1zm1.313 20.65l.641-.982 5.573 3.635-.64.983zm-36.645-20.762l1.495-4.993 1.124.337-1.495 4.993zm-10.224 19.609l5.068-4.147.743.908-5.068 4.147zM260 99.5a2 2 0 112-2 2.011 2.011 0 01-2 2zm0-2.601a.6.6 0 00-.601.601.602.602 0 001.156 0 .601.601 0 00-.555-.601zM203.011 92.5a1.998 1.998 0 01-1.429-3.41A1.999 1.999 0 01205 90.5a1.986 1.986 0 01-1.988 2zm0-2.586a.596.596 0 00-.651.92.598.598 0 10.651-.92zm40.421 40.586l-.432-1.095c.113 0 11.7-4.128 15.878-11.905l1.122.518c-2.305 4.302-6.7 7.47-9.972 9.371a40.41 40.41 0 01-6.596 3.111z"/><path fill="#167BF7" d="M245.276 126.5l-.276-1.175c.052 0 5.078-1.574 7.31-3.825l.69.916c-2.422 2.44-7.483 4.014-7.724 4.084zm-31.087 4c-.944-.78-1.868-1.522-2.772-2.254-5.882-4.744-10.974-8.837-13.417-15.33l1.18-.416c2.33 6.188 7.29 10.191 13.038 14.827l2.782 2.254-.811.919z"/><path fill="#167BF7" d="M207.452 121.5a39.493 39.493 0 01-9.452-7.327l.929-.673a38.832 38.832 0 009.071 7.05l-.548.95zm37.398-10.455l9.273-11.435.912.739-9.272 11.435zm-2.513-1.336l8.819-11.537.931.713-8.818 11.536zm-33.011-2.182l6.998-11.375 1 .614-7 11.376zm-1.401-1.027l-.925-.614c2.683-4.362 6.743-10.99 6.947-11.386l.481.255.536-.18c.093.284.093.284-1.137 2.304-.657 1.077-1.527 2.502-2.405 3.928l-3.497 5.693zm35.251-11l-1.088-.428 3.322-8.616a3.335 3.335 0 00.337-2.503l-1.05-4.118a2.166 2.166 0 00-1.82-1.626l-19.384-2.482a2.143 2.143 0 00-2.244 1.275l-1.752 3.963a3.306 3.306 0 00-.097 2.463v.126l1.07 8.47-1.166.156-1.069-8.412a4.564 4.564 0 01.154-3.29l1.791-4.002a3.307 3.307 0 013.457-1.947l19.365 2.512a3.316 3.316 0 012.812 2.492l1.04 4.128a4.509 4.509 0 01-.433 3.35l-3.245 8.489z"/><path fill="#167BF7" d="M241.172 83.5h-.238l-14.347-1.768a1.828 1.828 0 01-1.214-.628 1.523 1.523 0 01-.358-1.202c.143-.885 1.06-1.504 2.06-1.388l14.346 1.715c1 .123 1.698.942 1.562 1.83-.058.43-.314.82-.706 1.079a1.986 1.986 0 01-1.105.362zm-14.357-3.89c-.308.002-.567.206-.607.478a.52.52 0 00.12.406.63.63 0 00.408.204l14.347 1.768a.698.698 0 00.457-.106.588.588 0 00.24-.363c.04-.302-.199-.577-.538-.619l-14.327-1.759-.1-.009z"/><path fill="#167BF7" d="M219.492 80.534l.227-1.15 5.443 1.071-.227 1.152zm21.711 3.25l.043-1.173 5.622.206-.043 1.173zm2.577-7.284l-.57-8.488c-.04-.523-.478-.947-1.043-1.007l-13.072-1.387c-.562-.063-1.092.254-1.259.753l-2.695 7.944-1.141-.327 2.725-7.944c.332-.997 1.382-1.639 2.508-1.532l13.062 1.378c1.162.113 2.064.984 2.135 2.058l.57 8.48-1.22.072z"/><path fill="#167BF7" d="M243.251 66.5l-1.26-.123 2.707-22.095c.122-.946-.45-1.853-1.405-2.23l-.197-.076a18.455 18.455 0 00-9.144-1.153c-1.083.119-1.937.9-2.067 1.89l-2.635 22.17-1.25-.122 2.635-22.171c.181-1.51 1.457-2.715 3.1-2.93a19.857 19.857 0 019.847 1.238l.196.085c1.476.559 2.373 1.94 2.201 3.393L243.251 66.5z"/><path fill="#167BF7" d="M229.724 57.97l.135-1.166 13.057 1.511-.135 1.165zm9.819 36.53l-1.01-.227.463-2.57a.39.39 0 00-.059-.293.32.32 0 00-.236-.142l-4.453-.387a1.32 1.32 0 01-.945-.558 1.651 1.651 0 01-.292-1.153l.665-5.67 1.019.151-.665 5.67a.404.404 0 00.05.265.298.298 0 00.227.142l4.445.378c.385.037.739.253.976.595.233.348.322.792.244 1.22l-.429 2.579zm-42.946-9l-2.045-11.134L184 65.416 193.72 61l-4.425-10.241 15.329-1.476.607-12.716 13.84 7.154 3.671-10.221L233 40.732l-.685.961-8.986-6.32-3.592 10.028-13.4-6.931-.568 11.891-14.731 1.417 4.228 9.814-9.073 4.135 9.455 8.018 2.124 11.541zm68.907 8l-1.179-.181 2.24-13.45 10.264-5.525-9.66-7.734 9.601-9.002-11.666-3.943 3.798-11.193-13.808 4.039-3.846-8.239-7.547 5.372-.701-.943 8.725-6.201 4.022 8.611 15.005-4.391-4.148 12.221L279 57.132l-10.049 9.411 9.991 7.992-11.296 6.077zm-38.67 57a11.159 11.159 0 01-7.806-3.149L206 134.707l.83-.84 13.037 12.653c3.12 3.032 7.876 3.683 11.71 1.604l25.772-14.074a8.196 8.196 0 003.903-4.771l4.606-14.779 1.142.348-4.616 14.778a9.353 9.353 0 01-4.479 5.458l-25.772 14.073a11.042 11.042 0 01-5.299 1.343z"/><path fill="#167BF7" d="M226.177 142.5a7.26 7.26 0 01-5.207-2.18l-23.843-24.602A7.47 7.47 0 01195 110.5h1.174a6.37 6.37 0 001.8 4.426l23.852 24.601c1.839 1.882 4.719 2.357 7.085 1.17l22.63-11.456a7.731 7.731 0 004.032-4.463l2.31-6.7 1.117.368-2.31 6.7a8.91 8.91 0 01-4.63 5.124l-22.61 11.484a7.278 7.278 0 01-3.273.746zm-42.512 76a4.2 4.2 0 01-1.34-.229L174 215.425l.342-1.154 8.37 2.846c1.131.383 2.366.064 3.212-.83.846-.893 1.165-2.215.83-3.439l1.073-.348c.38 1.4.127 2.912-.68 4.084-.809 1.172-2.08 1.87-3.436 1.886l-.046.03z"/><path fill="#167BF7" d="M177.459 209.367l1.135-.297 1.876 7.162-1.135.298z"/></g></svg>