<svg xmlns="http://www.w3.org/2000/svg" width="250" height="343"><g style="mix-blend-mode:overlay" fill="none"><path fill="#0a3266" d="M115.5 256c-26.852 0-52.105-10.552-71.061-29.732C25.449 207.088 15 181.62 15 154.5c0-27.12 10.448-52.623 29.439-71.768C63.429 63.552 88.648 53 115.5 53c26.852 0 52.105 10.552 71.061 29.732C205.551 101.912 216 127.38 216 154.5c0 27.12-10.448 52.589-29.405 71.734C167.605 245.414 142.352 256 115.5 256zm0-201.831c-26.546 0-51.458 10.449-70.244 29.388-18.753 18.938-29.065 44.133-29.065 70.909 0 26.775 10.346 51.97 29.099 70.943 18.752 18.939 43.698 29.388 70.244 29.388s51.458-10.449 70.245-29.388c18.752-18.939 29.098-44.133 29.098-70.943 0-26.81-10.38-51.97-29.133-70.944C166.992 64.583 142.046 54.17 115.5 54.17z"/><path fill="#0a3266" d="M116.615 155c-.07 0-.138 0-.207-.034-.31-.103-.481-.41-.378-.717l32.154-120.813a.574.574 0 01.722-.41c.31.069.516.41.413.718l-29.816 112.039 44.328-107.124a.641.641 0 01.791-.341c.31.137.447.478.344.785l-47.801 115.521a.589.589 0 01-.55.376z"/><path fill="#0a3266" d="M115.625 156c-.07 0-.138 0-.207-.034a.63.63 0 01-.414-.653l15.959-124.794c.034-.343.345-.55.69-.515.344.034.55.343.516.687l-15.58 121.804 61.285-106.377a.606.606 0 01.827-.206c.31.172.379.55.207.825l-62.766 108.988a.608.608 0 01-.517.275z"/><path fill="#2A7AE4" d="M192.841 55.342l-75.676 99.477"/><path fill="#0a3266" d="M117.01 154.704l75.69-99.428.27.208-75.69 99.428z"/><path fill="#0a3266" d="M116.61 155a.566.566 0 01-.376-.137c-.273-.207-.307-.585-.102-.86l75.781-99.767c.205-.275.58-.31.853-.103.273.206.307.584.102.859l-75.815 99.802a.551.551 0 01-.444.206zm51.759 124a.588.588 0 01-.549-.375L120.48 164.2l29.742 111.767c.069.307-.103.648-.412.716-.308.068-.652-.102-.72-.409l-32.075-120.525a.621.621 0 01.377-.715.598.598 0 01.755.34l50.805 122.808c.137.307-.034.648-.343.784-.068.034-.137.034-.24.034z"/><path fill="#0a3266" d="M131.551 281a.567.567 0 01-.586-.516l-15.96-124.796a.627.627 0 01.413-.653.609.609 0 01.724.275l62.774 108.952c.172.275.069.653-.207.825-.276.172-.655.069-.827-.206l-61.326-106.375 15.581 121.807c.035.343-.207.618-.517.687h-.069z"/><path fill="#2A7AE4" d="M192.841 255.726l-75.676-99.418"/><path fill="#0a3266" d="M117.012 156.418l.27-.208 75.68 99.41-.27.208z"/><path fill="#0a3266" d="M192.435 256a.597.597 0 01-.478-.24l-75.837-99.78a.64.64 0 01.103-.859.63.63 0 01.853.103l75.802 99.813a.64.64 0 01-.103.859.652.652 0 01-.341.103z"/><path fill="#0a3266" d="M224.159 219c-.103 0-.206-.035-.309-.07L115.3 155.129a.625.625 0 01-.24-.797c.138-.277.48-.415.755-.277l115.823 48.84a.597.597 0 01.309.796.59.59 0 01-.79.312L123.81 158.73l100.659 59.162c.274.173.377.554.206.83-.138.174-.31.278-.515.278z"/><path fill="#0a3266" d="M215.7 232a.511.511 0 01-.376-.137L116.24 155.08c-.24-.172-.308-.48-.171-.754a.618.618 0 01.684-.308l120.809 32.72c.308.103.513.412.41.72-.102.309-.41.514-.718.411l-117.9-31.933 96.722 74.968c.273.205.307.582.102.856-.102.171-.274.24-.479.24z"/><path fill="#2A7AE4" d="M239.796 170.432l-123.489-15.969"/><path fill="#0a3266" d="M116.3 154.655l.045-.326 123.48 15.95-.044.327z"/><path fill="#0a3266" d="M240.381 172h-.068l-123.797-16.78c-.342-.035-.546-.348-.512-.695.034-.348.341-.556.683-.521l123.797 16.78c.341.035.546.347.512.695a.651.651 0 01-.615.521z"/><path fill="#0a3266" d="M115.61 156a.653.653 0 01-.55-.346.624.624 0 01.24-.797l108.452-63.772c.274-.174.652-.07.823.208.171.277.069.658-.206.83L123.804 151.29l107.354-45.274c.309-.14.652 0 .789.311a.599.599 0 01-.309.797l-115.755 48.842c-.102 0-.205.035-.274.035z"/><path fill="#0a3266" d="M116.617 156a.607.607 0 01-.547-.343.592.592 0 01.17-.753l99.084-76.772c.274-.205.65-.171.855.103.205.274.171.65-.102.856l-96.723 74.922 117.9-31.928a.571.571 0 01.72.41.57.57 0 01-.411.72l-120.809 32.716c-.034.035-.068.069-.137.069z"/><path fill="#2A7AE4" d="M239.796 138.535l-123.489 15.936"/><path fill="#0a3266" d="M116.282 154.317l123.495-15.9.045.326-123.496 15.901z"/><path fill="#0a3266" d="M116.584 156a.566.566 0 01-.58-.521.619.619 0 01.512-.695l123.797-16.78c.342-.035.615.173.683.52a.62.62 0 01-.512.696L116.687 156h-.103z"/><path fill="#0a3266" d="M222.406 260a.635.635 0 01-.413-.172L116.18 154.331a.6.6 0 010-.859L221.75 48.18c.242-.24.62-.24.862 0 .24.24.24.618 0 .859l-105.158 104.88 105.364 105.085a.6.6 0 010 .859.662.662 0 01-.413.137z"/><path fill="#0a3266" d="M249.39 155H117.61c-.34 0-.61-.222-.61-.5s.27-.5.61-.5h131.78c.34 0 .61.222.61.5s-.305.5-.61.5zM119.585 94h-8.24c-2.398 0-4.345-1.91-4.345-4.262v-3.273c0-1.91 1.112-3.069 2.086-3.649-.66-.92-1.321-2.761.452-5.796 1.703-2.932 1.599-5.762 1.356-12.581a250.202 250.202 0 01-.244-8.831c-.104-5.763.626-10.127 2.121-12.923 1.182-2.216 2.433-2.625 2.573-2.66a.603.603 0 01.347 0c.14.035 1.39.478 2.573 2.66 1.495 2.796 2.19 7.16 2.12 12.923-.07 3.546-.173 6.478-.243 8.83-.278 6.854-.382 9.684 1.356 12.582 1.773 3.035 1.078 4.842.348 5.762 1.32.75 2.155 2.114 2.155 3.683v3.273c-.104 2.353-2.051 4.262-4.415 4.262zm-4.137-52.713c-.765.477-3.824 3.103-3.65 14.32.07 3.547.173 6.445.243 8.832.278 6.887.382 10.024-1.495 13.229-2.086 3.546-.209 4.842-.139 4.91a.598.598 0 01.278.58c-.035.238-.209.409-.452.477-.07.034-2.051.613-2.051 2.864v3.273c0 1.67 1.39 3.069 3.129 3.069h8.24c1.703 0 3.128-1.364 3.128-3.069V86.5c0-1.33-.87-2.49-2.155-2.898-.244-.069-.383-.273-.418-.512-.034-.238.07-.443.278-.58.105-.068 2.017-1.33-.034-4.841-1.878-3.205-1.773-6.342-1.495-13.23.104-2.352.208-5.284.243-8.83.174-11.218-2.85-13.844-3.65-14.32zM115.517 271c-.07 0-.104 0-.174-.034-.14-.034-1.396-.477-2.583-2.66-1.501-2.795-2.2-7.158-2.13-12.92.07-3.545.175-6.477.245-8.83.279-6.851.384-9.681-1.362-12.579-1.78-3.034-1.082-4.84-.349-5.761-1.326-.75-2.164-2.114-2.164-3.682v-3.273c0-2.352 1.955-4.261 4.363-4.261h8.274c2.408 0 4.363 1.91 4.363 4.261v3.273c0 1.91-1.117 3.068-2.094 3.648.663.92 1.326 2.761-.454 5.795-1.71 2.932-1.606 5.762-1.362 12.58.105 2.352.21 5.284.245 8.83.104 5.76-.629 10.124-2.13 12.92-1.187 2.216-2.443 2.625-2.583 2.659.035.034-.035.034-.105.034zm-4.922-42.477c-.104.068-2.024 1.33.035 4.84 1.885 3.205 1.78 6.342 1.501 13.228a252.731 252.731 0 00-.244 8.795c-.174 11.25 2.862 13.841 3.665 14.319.768-.478 3.84-3.069 3.666-14.319-.07-3.545-.175-6.443-.245-8.83-.279-6.886-.384-10.022 1.501-13.226 2.095-3.546.21-4.841.14-4.91a.6.6 0 01-.28-.58c.036-.238.21-.408.455-.476.07-.034 2.059-.614 2.059-2.864v-3.273c0-1.67-1.396-3.068-3.142-3.068h-8.273c-1.71 0-3.141 1.364-3.141 3.068v3.273c0 1.33.872 2.489 2.164 2.898.244.068.384.272.419.511.035.273-.105.477-.28.614z"/><path fill="#0a3266" d="M184.535 163h-3.273c-2.353 0-4.262-1.955-4.262-4.363v-8.274c0-2.408 1.91-4.363 4.262-4.363h3.273c1.91 0 3.069 1.117 3.649 2.094.92-.663 2.761-1.326 5.796.454 2.932 1.71 5.762 1.606 12.581 1.362 2.353-.105 5.285-.21 8.831-.245 5.763-.104 10.127.629 12.923 2.13 2.216 1.187 2.625 2.443 2.66 2.583a.61.61 0 010 .349c-.035.14-.478 1.396-2.66 2.583-2.796 1.501-7.16 2.2-12.923 2.13-3.546-.07-6.478-.175-8.83-.245-6.854-.28-9.684-.384-12.582 1.361-3.035 1.78-4.842 1.083-5.762.35a4.32 4.32 0 01-3.683 2.094zm-3.239-15.708c-1.67 0-3.069 1.396-3.069 3.141v8.273c0 1.71 1.364 3.142 3.07 3.142h3.272c1.33 0 2.49-.873 2.899-2.164.068-.245.272-.384.511-.42.239-.034.443.07.58.28.068.105 1.33 2.025 4.841-.035 3.205-1.885 6.342-1.78 13.23-1.5 2.352.104 5.285.209 8.797.244 11.217.174 13.843-2.863 14.32-3.666-.477-.768-3.103-3.84-14.32-3.665-3.546.07-6.445.175-8.831.244-6.888.28-10.025.384-13.23-1.5-3.614-2.13-4.876-.175-4.91-.14-.136.21-.34.314-.58.279-.238-.035-.408-.21-.477-.454-.034-.07-.613-2.06-2.864-2.06h-3.239zM49.738 164h-3.273c-1.91 0-3.069-1.112-3.649-2.086-.92.66-2.761 1.321-5.796-.452-2.932-1.703-5.762-1.599-12.581-1.356-2.353.105-5.285.209-8.831.244-5.763.104-10.127-.626-12.923-2.121-2.216-1.182-2.625-2.433-2.66-2.573a.603.603 0 010-.347c.035-.14.478-1.39 2.66-2.573 2.796-1.495 7.16-2.19 12.923-2.12 3.546.07 6.478.173 8.83.243 6.854.278 9.684.382 12.582-1.356 3.035-1.773 4.842-1.078 5.762-.348.75-1.32 2.114-2.155 3.683-2.155h3.273c2.353 0 4.262 1.947 4.262 4.346v8.239c0 2.468-1.91 4.415-4.262 4.415zm-6.683-3.685h.102c.24.035.41.209.478.452.034.07.613 2.051 2.864 2.051h3.273c1.67 0 3.069-1.39 3.069-3.129v-8.24c0-1.703-1.364-3.128-3.069-3.128H46.5c-1.33 0-2.49.87-2.898 2.155-.069.244-.273.383-.512.418-.238.034-.443-.07-.58-.278-.068-.105-1.33-2.017-4.841.034-3.205 1.878-6.342 1.773-13.23 1.495a252.848 252.848 0 00-8.83-.243c-11.218-.174-13.844 2.85-14.32 3.65.476.765 3.102 3.824 14.32 3.65 3.546-.07 6.444-.173 8.83-.243 6.888-.278 10.025-.382 13.23 1.495 3.546 2.086 4.842.209 4.91.139a.542.542 0 01.477-.278zM196.908 238c-2.076 0-6.299-1.195-13.195-8.33a453.823 453.823 0 01-6.264-6.644c-4.785-5.167-6.79-7.312-10.134-8.226-2.146-.597-3.553-1.581-4.187-2.952a3.01 3.01 0 01-.281-.984 4.397 4.397 0 01-4.188-1.125l-2.392-2.39c-.81-.809-1.267-1.934-1.267-3.094s.457-2.285 1.267-3.093l5.876-5.87c1.724-1.723 4.504-1.723 6.193 0l2.393 2.39c1.407 1.406 1.477 3.023 1.16 4.148 1.162.176 2.992 1.054 3.907 4.534.914 3.34 3.06 5.343 8.233 10.124a440.212 440.212 0 016.65 6.257c10.17 9.842 8.27 14.236 8.023 14.693-.07.105-.14.21-.246.246-.176.105-.669.316-1.548.316zm-32.865-27.875c-.035.106-.493 2.426 3.59 3.516 3.694.984 5.91 3.374 10.731 8.576 1.654 1.793 3.695 4.007 6.263 6.609 8.058 8.295 12.14 8.05 13.055 7.838.211-.914.457-4.991-7.847-13.04a331.552 331.552 0 00-6.615-6.258c-5.208-4.815-7.565-7.03-8.586-10.72-1.09-4.078-3.378-3.691-3.483-3.656-.246.035-.493-.035-.634-.246a.655.655 0 01-.035-.668c.035-.07 1.02-1.898-.633-3.55l-2.393-2.39a3.167 3.167 0 00-4.469 0l-5.876 5.905a3.078 3.078 0 00-.915 2.214c0 .844.317 1.617.915 2.215l2.393 2.39a3.109 3.109 0 003.66.562c.21-.105.457-.07.668.07a.742.742 0 01.211.633zM66.767 116a4.394 4.394 0 01-3.097-1.267l-2.393-2.392c-1.408-1.408-1.478-3.027-1.161-4.153-1.162-.175-2.992-1.055-3.907-4.539-.915-3.342-3.062-5.348-8.235-10.134a448.212 448.212 0 01-6.652-6.263c-10.171-9.852-8.27-14.25-8.024-14.708.07-.106.14-.211.246-.246.458-.247 4.857-2.147 14.711 8.022 2.534 2.64 4.61 4.856 6.265 6.65 4.786 5.173 6.792 7.32 10.136 8.234 2.147.599 3.554 1.584 4.188 2.956.176.352.246.704.281.985a4.392 4.392 0 014.188 1.126l2.394 2.393c1.724 1.724 1.724 4.504 0 6.193l-5.878 5.876A4.31 4.31 0 0166.767 116zm-5.772-9.008c.212 0 .388.106.493.246a.653.653 0 01.035.669c-.035.07-1.02 1.9.634 3.554l2.393 2.393a3.086 3.086 0 002.217.914c.845 0 1.62-.316 2.218-.914l5.877-5.877a3.163 3.163 0 000-4.468l-2.393-2.393a3.108 3.108 0 00-3.66-.563c-.212.105-.458.07-.67-.07a.61.61 0 01-.21-.634c.035-.105.492-2.428-3.59-3.519-3.695-.985-5.913-3.378-10.734-8.585-1.654-1.795-3.696-4.012-6.265-6.615-8.06-8.305-12.142-8.058-13.057-7.847-.211.915-.457 4.996 7.848 13.054a333.373 333.373 0 006.617 6.264c5.209 4.82 7.567 7.037 8.587 10.732 1.091 4.081 3.379 3.694 3.485 3.66h.175zM164.24 115a4.363 4.363 0 01-3.097-1.267l-5.876-5.876a4.392 4.392 0 01-1.267-3.096 4.39 4.39 0 011.267-3.097l2.392-2.393c1.408-1.407 3.027-1.477 4.153-1.16.175-1.162 1.055-2.992 4.539-3.907 3.342-.914 5.348-3.06 10.134-8.233a439.58 439.58 0 016.263-6.65c9.852-10.17 14.25-8.27 14.708-8.023.106.07.211.14.246.246.247.457 2.147 4.856-8.022 14.708a449.083 449.083 0 01-6.65 6.263c-5.173 4.786-7.32 6.792-8.234 10.134-.599 2.147-1.584 3.554-2.956 4.188a3.016 3.016 0 01-.985.281 4.39 4.39 0 01-1.126 4.187l-2.393 2.393a4.258 4.258 0 01-3.097 1.302zm-3.554-15.799c-.634 0-1.408.211-2.182.95l-2.393 2.393a3.085 3.085 0 00-.915 2.217c0 .844.317 1.618.915 2.216l5.876 5.877a3.167 3.167 0 004.47 0l2.392-2.393a3.108 3.108 0 00.563-3.66.652.652 0 01.07-.668.606.606 0 01.634-.211c.105.035 2.428.492 3.518-3.59.986-3.694 3.378-5.91 8.586-10.731 1.795-1.654 4.011-3.695 6.615-6.264 8.34-8.093 8.058-12.14 7.847-13.054-.915-.211-4.961-.493-13.055 7.847a330.957 330.957 0 00-6.263 6.615c-4.82 5.207-7.037 7.565-10.732 8.585-4.082 1.091-3.694 3.378-3.66 3.484.036.246-.034.493-.246.633a.653.653 0 01-.668.036c-.035 0-.598-.282-1.372-.282zM35.057 238c-.88 0-1.372-.211-1.513-.282-.106-.07-.211-.14-.246-.246-.247-.458-2.147-4.862 8.022-14.726a454.602 454.602 0 016.65-6.27c5.173-4.791 7.32-6.8 8.234-10.146.599-2.15 1.584-3.558 2.956-4.192a3.02 3.02 0 01.985-.282 4.399 4.399 0 011.126-4.192l2.393-2.396A4.393 4.393 0 0166.761 194c1.16 0 2.287.458 3.096 1.268l5.876 5.883a4.4 4.4 0 011.267 3.1c0 1.163-.457 2.29-1.267 3.1l-2.392 2.396c-1.408 1.41-3.027 1.48-4.153 1.163-.175 1.162-1.055 2.994-4.539 3.91-3.342.916-5.348 3.065-10.134 8.243a444.679 444.679 0 01-6.263 6.658C41.356 236.767 37.133 238 35.057 238zm-.739-1.339c.915.212 4.997.458 13.055-7.856a334.333 334.333 0 006.263-6.622c4.82-5.214 7.037-7.575 10.732-8.596 4.152-1.127 3.66-3.452 3.66-3.488-.036-.246.034-.493.246-.634.21-.14.457-.176.668-.035.07.035 1.9 1.022 3.554-.634l2.393-2.396a3.092 3.092 0 00.915-2.22c0-.845-.317-1.62-.915-2.218l-5.876-5.884a3.088 3.088 0 00-2.217-.915c-.845 0-1.619.317-2.217.915l-2.393 2.396a3.114 3.114 0 00-.563 3.664.654.654 0 01-.07.669.604.604 0 01-.633.211c-.106-.035-2.428-.493-3.52 3.594-.984 3.699-3.377 5.918-8.585 10.744-1.794 1.656-4.011 3.7-6.615 6.27-8.34 8.033-8.093 12.12-7.882 13.035zM112.333 132c-.06 0-.12 0-.179-.033-.806-.234-.896-1.538-.896-2.64.09-5.782-1.225-21.389-1.255-21.556-.03-.3.15-.568.418-.635l4.9-1.103c.09-.033.15-.033.239-.033.03 0 .06 0 .09.033l4.929 1.103c.268.067.448.334.418.635 0 .167-1.315 15.774-1.255 21.555 0 1.103-.06 2.407-.896 2.64-.837.235-1.972-1.102-3.346-3.976-1.285 2.673-2.36 4.01-3.167 4.01zm-1.254-23.794c.239 2.84 1.284 15.84 1.225 21.154 0 .902.06 1.303.119 1.437.448-.267 1.524-1.905 2.599-4.311.09-.2.269-.334.478-.334.21 0 .388.133.478.334 1.075 2.406 2.15 4.044 2.599 4.31.06-.166.15-.534.12-1.436-.06-5.314.985-18.314 1.224-21.154l-4.421-1.003-4.421 1.003zM69.704 160.93c-.267 0-.5-.211-.568-.492l-1.103-5.76c-.033-.106-.033-.176-.033-.281 0-.036 0-.07.033-.106l1.103-5.795c.067-.317.334-.527.635-.492.167 0 15.74 1.545 21.556 1.475 1.103 0 2.406.07 2.64 1.054.2.808-.501 1.686-2.34 2.915-.568.387-1.17.773-1.67 1.054.5.28 1.102.632 1.67 1.054 1.805 1.229 2.507 2.107 2.34 2.915-.234.948-1.537 1.054-2.64 1.054-5.782-.106-21.389 1.44-21.556 1.475-.033-.07-.067-.07-.067-.07zm-.534-6.463l1.002 5.198c2.84-.28 15.841-1.51 21.155-1.44.902.035 1.303-.07 1.437-.14-.268-.527-1.905-1.792-4.311-3.056a.631.631 0 01-.335-.562c0-.246.134-.457.335-.562 2.406-1.3 4.043-2.53 4.31-3.056-.166-.07-.534-.176-1.436-.14-5.314.07-18.314-1.16-21.155-1.44l-1.002 5.198zM160.295 160h-.067c-.167 0-15.778-1.467-21.561-1.37-1.103 0-2.407-.064-2.64-.977-.235-.913 1.102-2.152 3.977-3.651-2.875-1.532-4.212-2.739-3.978-3.651.234-.88 1.538-.978 2.641-.978 5.783.097 21.394-1.337 21.561-1.37a.584.584 0 01.635.457l1.104 5.346a.71.71 0 01.033.261c0 .033 0 .065-.033.098l-1.104 5.379a.599.599 0 01-.568.456zm-21.093-2.51c5.616 0 17.884 1.076 20.625 1.336l1.003-4.824-1.003-4.825c-2.841.26-15.845 1.402-21.16 1.337-.903 0-1.304.097-1.437.13.267.49 1.905 1.663 4.312 2.836.2.098.334.294.334.522a.579.579 0 01-.334.521c-2.407 1.174-4.045 2.347-4.312 2.836.167.066.534.163 1.437.13h.535zM96.92 142c-.716 0-1.467-.683-2.116-1.332-4.132-4.236-16.458-14.45-16.595-14.553a.585.585 0 01-.102-.785l3.175-4.749c.034-.102.103-.17.205-.239.034-.034.034-.034.068-.034l4.78-3.211c.24-.171.581-.103.786.102.103.137 10.312 12.469 14.546 16.602.82.786 1.673 1.81 1.195 2.63-.512.855-2.39.786-5.6-.17.956 3.211.99 5.09.17 5.602a.953.953 0 01-.511.137zm-17.516-16.465c2.22 1.844 12.463 10.419 16.253 14.313.65.649.99.854 1.161.922.171-.58-.17-2.596-1.024-5.226-.068-.205 0-.444.137-.615a.593.593 0 01.614-.137c2.63.854 4.644 1.162 5.224 1.025-.068-.137-.273-.513-.922-1.162-3.892-3.791-12.463-14.04-14.306-16.26l-4.269 2.87-2.868 4.27zM144.323 192a.55.55 0 01-.444-.205c-.103-.136-10.312-12.458-14.546-16.588-.82-.786-1.673-1.81-1.195-2.629.512-.853 2.39-.785 5.6.17-.956-3.208-.99-5.085-.17-5.597.819-.512 1.843.376 2.628 1.195 4.132 4.232 16.458 14.438 16.595 14.54a.586.586 0 01.102.786l-3.175 4.744c-.034.102-.103.17-.205.239-.034 0-.034.034-.068.034l-4.78 3.209a.665.665 0 01-.342.102zm-15.127-18.807c.069.17.274.512.922 1.16 3.893 3.789 12.463 14.029 14.307 16.248l4.268-2.868 2.869-4.266c-2.22-1.843-12.463-10.41-16.254-14.302-.648-.649-.99-.853-1.16-.922-.171.58.17 2.594 1.024 5.223.068.205 0 .443-.137.614a.595.595 0 01-.614.137c-2.595-.854-4.644-1.195-5.225-1.024zM86.638 192a.648.648 0 01-.34-.103l-4.744-3.18a.349.349 0 01-.205-.171c-.034-.034-.034-.034-.034-.068l-3.208-4.788a.588.588 0 01.102-.787c.137-.102 12.456-10.327 16.586-14.568.785-.82 1.809-1.676 2.628-1.197.853.513.785 2.394-.17 5.609 3.207-.958 5.084-.992 5.596-.171.512.82-.375 1.846-1.195 2.633-4.231 4.138-14.435 16.483-14.538 16.62-.136.068-.307.171-.478.171zm-4.368-4.275l4.266 2.873c1.843-2.223 10.409-12.482 14.3-16.278.648-.65.853-.992.92-1.129-.58-.17-2.695.171-5.22 1.026-.205.069-.444 0-.615-.137a.594.594 0 01-.136-.615c.853-2.633 1.16-4.651 1.023-5.233-.17.069-.512.274-1.16.924-3.788 3.898-14.026 12.482-16.245 14.329l2.867 4.24zM134.098 142a.962.962 0 01-.513-.137c-.854-.512-.786-2.39.17-5.6-3.212.956-5.091.99-5.604.171-.512-.82.376-1.844 1.196-2.63 4.238-4.131 14.456-16.458 14.558-16.595a.587.587 0 01.786-.102l4.75 3.175a.622.622 0 01.24.171c.034.034.034.034.034.068l3.178 4.781c.171.24.137.58-.102.785-.137.103-12.474 10.313-16.609 14.547-.615.683-1.367 1.366-2.084 1.366zm.546-7.24c.171 0 .308.07.41.172.171.17.205.41.137.614-.854 2.63-1.162 4.644-1.025 5.225.17-.069.512-.273 1.162-.922 3.793-3.893 14.045-12.464 16.267-14.308l-2.871-4.268-4.272-2.869c-1.845 2.22-10.423 12.464-14.319 16.254-.649.65-.854.99-.922 1.161.58.171 2.597-.17 5.228-1.024.069 0 .137-.034.205-.034z"/><path fill="#0a3266" d="M117.7 140h-6.4c-1.818 0-3.3-1.497-3.3-3.333v-8.334c0-1.836 1.482-3.333 3.3-3.333h6.4c1.818 0 3.3 1.497 3.3 3.333v8.334c0 1.836-1.482 3.333-3.3 3.333zm-6.433-13.81a2.124 2.124 0 00-2.122 2.143v8.334c0 1.19.943 2.143 2.122 2.143h6.399a2.124 2.124 0 002.122-2.143v-8.334c0-1.19-.943-2.143-2.122-2.143h-6.4zM97.666 162h-8.333c-1.836 0-3.333-1.482-3.333-3.3v-6.4c0-1.818 1.497-3.3 3.333-3.3h8.333c1.837 0 3.333 1.482 3.333 3.3v6.4c.034 1.818-1.496 3.3-3.333 3.3zm-8.333-11.855c-1.19 0-2.143.943-2.143 2.122v6.399c0 1.179.953 2.122 2.143 2.122h8.333c1.19 0 2.143-.943 2.143-2.122v-6.4c0-1.178-.952-2.12-2.143-2.12h-8.333zM142.666 162h-8.333c-1.836 0-3.333-1.482-3.333-3.3v-6.4c0-1.818 1.497-3.3 3.333-3.3h8.333c1.837 0 3.333 1.482 3.333 3.3v6.4c.034 1.818-1.496 3.3-3.333 3.3zm-8.333-11.855c-1.19 0-2.143.943-2.143 2.122v6.399c0 1.179.953 2.122 2.143 2.122h8.333c1.19 0 2.143-.943 2.143-2.122v-6.4c0-1.178-.952-2.12-2.143-2.12h-8.333zM99.176 147c-.845 0-1.69-.337-2.366-.977l-5.847-5.83c-1.284-1.28-1.284-3.403 0-4.684l4.529-4.549c1.284-1.28 3.414-1.28 4.698 0l5.847 5.83c1.284 1.28 1.284 3.403 0 4.684l-4.563 4.549c-.574.64-1.453.977-2.298.977zm-1.284-15.804c-.541 0-1.116.202-1.521.64l-4.563 4.516a2.131 2.131 0 000 3.033l5.847 5.83a2.15 2.15 0 003.042 0l4.562-4.55a2.131 2.131 0 000-3.033l-5.846-5.83a2.241 2.241 0 00-1.521-.606zM131.166 179c-.843 0-1.685-.336-2.36-.974l-5.829-5.813a3.242 3.242 0 01-.977-2.351 3.3 3.3 0 01.977-2.352l4.516-4.536a3.263 3.263 0 012.358-.974c.91 0 1.719.336 2.36.974l5.829 5.813c1.28 1.276 1.28 3.393 0 4.67l-4.55 4.535c-.64.706-1.482 1.008-2.324 1.008zm-1.315-15.757c-.573 0-1.112.235-1.516.605l-4.515 4.535a2.102 2.102 0 00-.607 1.512c0 .571.236 1.109.607 1.512l5.83 5.812c.842.84 2.19.84 3.032 0l4.549-4.535a2.126 2.126 0 000-3.024l-5.83-5.812c-.438-.37-.977-.605-1.55-.605z"/><path fill="#0a3266" d="M97.885 179c-.842 0-1.685-.337-2.359-.977l-4.549-4.516a3.258 3.258 0 01-.977-2.358c0-.91.337-1.719.977-2.36l5.83-5.829c1.28-1.28 3.403-1.28 4.684 0l4.549 4.55c1.28 1.28 1.28 3.403 0 4.683l-5.83 5.83c-.64.674-1.483.977-2.325.977zm1.28-15.804c-.539 0-1.111.202-1.516.64l-5.83 5.796c-.404.405-.606.944-.606 1.517s.236 1.112.607 1.516l4.549 4.55c.842.841 2.19.841 3.032 0l5.83-5.83a2.137 2.137 0 000-3.033l-4.55-4.55a2.109 2.109 0 00-1.515-.606zM129.862 147a3.303 3.303 0 01-2.352-.976l-4.536-4.511a3.261 3.261 0 01-.974-2.357c0-.908.336-1.716.974-2.356l5.813-5.824c.638-.64 1.444-.976 2.351-.976s1.714.337 2.352.976l4.536 4.545c.638.64.974 1.447.974 2.356 0 .875-.336 1.717-.974 2.357l-5.813 5.823a3.413 3.413 0 01-2.351.943zm1.31-15.822c-.571 0-1.109.236-1.512.606l-5.812 5.824a2.112 2.112 0 00-.605 1.515c0 .572.235 1.11.605 1.515l4.535 4.51c.404.404.941.606 1.512.606.571 0 1.109-.235 1.512-.605l5.812-5.824c.404-.404.605-.943.605-1.515s-.235-1.111-.605-1.515l-4.535-4.545c-.403-.336-.94-.572-1.512-.572z"/><path fill="#0a3266" d="M115.5 177c-12.951 0-23.5-10.549-23.5-23.5s10.549-23.5 23.5-23.5 23.5 10.549 23.5 23.5-10.549 23.5-23.5 23.5zm0-45.781c-12.29 0-22.281 9.991-22.281 22.281s9.991 22.281 22.281 22.281 22.281-9.991 22.281-22.281-9.991-22.281-22.281-22.281z"/><path fill="#0a3266" d="M115 225c-18.712 0-36.298-7.325-49.512-20.634C52.273 191.056 45 173.346 45 154.5 45 115.639 76.415 84 115 84c18.712 0 36.298 7.325 49.512 20.634C177.727 117.944 185 135.654 185 154.5c0 38.861-31.38 70.5-70 70.5zm0-139.796c-37.937 0-68.805 31.088-68.805 69.296 0 18.536 7.17 35.938 20.146 49.006 12.976 13.068 30.288 20.29 48.659 20.29 37.937 0 68.805-31.088 68.805-69.296 0-18.536-7.17-35.938-20.146-49.006-12.976-13.103-30.254-20.29-48.659-20.29zm-10.79 119.334c-.273 0-.512-.035-.786-.103-5.156-1.204-10.073-3.233-14.614-5.984-.922-.55-1.503-1.479-1.64-2.545-.136-1.066.24-2.098.991-2.855l.376-.378a3.108 3.108 0 000-4.367l-6.352-6.397a2.978 2.978 0 00-2.15-.894c-.82 0-1.572.31-2.152.894l-.58.585a3.439 3.439 0 01-2.8.997 3.318 3.318 0 01-2.527-1.582 51.183 51.183 0 01-6.488-15.51c-.24-1.032 0-2.132.649-2.958a3.422 3.422 0 012.697-1.306h.649c1.673 0 3.073-1.376 3.073-3.095v-9.045c0-1.685-1.366-3.095-3.073-3.095h-.649a3.423 3.423 0 01-2.697-1.307 3.524 3.524 0 01-.65-2.958 51.442 51.442 0 016.215-15.063c.547-.894 1.469-1.513 2.527-1.616 1.059-.137 2.083.24 2.834.997l.478.482a3.055 3.055 0 004.337 0l6.351-6.397c.58-.584.888-1.34.888-2.166 0-.826-.307-1.582-.888-2.167l-.478-.481c-.751-.757-1.092-1.789-.99-2.855.137-1.066.717-1.994 1.605-2.545 4.678-2.888 9.766-5.02 15.093-6.259a3.46 3.46 0 012.936.654 3.463 3.463 0 011.298 2.717v.412c0 1.685 1.366 3.095 3.073 3.095h8.98c1.674 0 3.074-1.375 3.074-3.095v-.31c0-1.065.478-2.063 1.297-2.716.854-.653 1.912-.894 2.937-.653 5.395 1.306 10.517 3.507 15.229 6.5.888.584 1.468 1.512 1.57 2.544.103 1.066-.238 2.064-.99 2.82l-.17.172a3.11 3.11 0 000 4.368l6.35 6.396a3.055 3.055 0 004.337 0c.752-.756 1.776-1.135 2.835-.997 1.058.138 1.98.722 2.526 1.65a52.285 52.285 0 015.908 14.548 3.522 3.522 0 01-.649 2.957 3.422 3.422 0 01-2.698 1.307h-.375c-1.673 0-3.073 1.376-3.073 3.095v9.045c0 1.685 1.366 3.095 3.073 3.095h.273c1.059 0 2.049.481 2.698 1.307.648.825.887 1.926.648 2.957-1.263 5.297-3.312 10.352-6.18 15.029-.546.894-1.468 1.513-2.527 1.616-1.059.138-2.083-.24-2.834-.997l-.103-.103a3.054 3.054 0 00-4.336 0l-6.351 6.396a3.03 3.03 0 00-.888 2.167c0 .825.307 1.582.888 2.167l.102.103c.751.756 1.093 1.788.99 2.854-.136 1.066-.717 1.995-1.605 2.545a49.497 49.497 0 01-14.785 6.19 3.463 3.463 0 01-2.937-.653 3.467 3.467 0 01-1.297-2.717v-.31c0-1.685-1.366-3.095-3.073-3.095h-8.98c-1.674 0-3.074 1.376-3.074 3.095v.413a3.467 3.467 0 01-1.297 2.717c-.547.447-1.298.688-2.05.688zM80 179.81c1.127 0 2.22.447 3.005 1.238l6.351 6.397c1.673 1.685 1.673 4.402 0 6.053l-.376.378a2.316 2.316 0 00-.648 1.857 2.19 2.19 0 001.058 1.65 50.233 50.233 0 0014.273 5.847c.683.172 1.366 0 1.913-.447a2.189 2.189 0 00.853-1.754v-.413c0-2.373 1.912-4.298 4.269-4.298h8.98c2.356 0 4.268 1.925 4.268 4.298v.31c0 .688.308 1.341.854 1.754a2.152 2.152 0 001.912.412 49.232 49.232 0 0014.41-6.052c.58-.379.956-.963 1.058-1.651a2.315 2.315 0 00-.648-1.857l-.103-.103c-1.673-1.685-1.673-4.402 0-6.053l6.351-6.397c1.674-1.685 4.371-1.685 6.01 0l.103.104c.478.481 1.16.722 1.844.653a2.176 2.176 0 001.639-1.066c2.8-4.54 4.814-9.492 6.044-14.65.17-.688 0-1.376-.41-1.926s-1.059-.86-1.742-.86h-.341c-2.356 0-4.268-1.926-4.268-4.299v-9.044c0-2.373 1.912-4.3 4.268-4.3h.273a2.16 2.16 0 001.741-.859c.444-.55.581-1.238.41-1.926a49.39 49.39 0 00-5.736-14.203 2.179 2.179 0 00-1.64-1.066c-.682-.069-1.365.138-1.843.653-1.673 1.686-4.371 1.686-6.01 0l-6.351-6.396c-1.673-1.685-1.673-4.402 0-6.053l.17-.172a2.316 2.316 0 00.65-1.857c-.069-.688-.445-1.307-1.025-1.65-4.61-2.924-9.595-5.056-14.888-6.328-.683-.172-1.366 0-1.912.412a2.19 2.19 0 00-.854 1.754v.31c0 2.373-1.912 4.299-4.268 4.299h-8.98c-2.357 0-4.269-1.926-4.269-4.3v-.309c0-.688-.307-1.341-.854-1.754-.546-.447-1.229-.584-1.912-.447-5.224 1.238-10.175 3.267-14.751 6.122-.58.378-.99.963-1.058 1.65-.069.688.136 1.376.648 1.858l.478.481c1.674 1.685 1.674 4.402 0 6.053l-6.35 6.396c-1.674 1.685-4.372 1.685-6.01 0l-.479-.481a2.283 2.283 0 00-1.844-.654 2.181 2.181 0 00-1.639 1.066c-2.8 4.574-4.848 9.492-6.044 14.72-.17.687 0 1.375.41 1.925s1.059.86 1.742.86h.648c2.357 0 4.269 1.926 4.269 4.299v9.045c0 2.372-1.912 4.298-4.269 4.298h-.648c-.683 0-1.332.31-1.742.86a2.194 2.194 0 00-.41 1.926 50.159 50.159 0 006.352 15.166c.375.585.99.963 1.673 1.032.683.068 1.332-.172 1.844-.654l.58-.584A4.065 4.065 0 0180 179.81z"/><path fill="#0a3266" d="M116 170c-8.277 0-15-6.723-15-15 0-8.277 6.723-15 15-15 8.277 0 15 6.723 15 15 0 8.277-6.723 15-15 15zm0-28.818c-7.635 0-13.818 6.217-13.818 13.818S108.4 168.818 116 168.818 129.818 162.6 129.818 155s-6.183-13.818-13.818-13.818z"/><path fill="#0a3266" d="M115.5 213C83.234 213 57 186.766 57 154.5S83.234 96 115.5 96s58.5 26.234 58.5 58.5-26.234 58.5-58.5 58.5zm0-115.793c-31.611 0-57.293 25.716-57.293 57.293 0 31.577 25.716 57.293 57.293 57.293 31.611 0 57.293-25.716 57.293-57.293 0-31.577-25.682-57.293-57.293-57.293z"/><path fill="#0a3266" d="M116 209c-29.777 0-54-24.223-54-54s24.223-54 54-54 54 24.223 54 54-24.223 54-54 54zm0-106.808c-29.13 0-52.808 23.679-52.808 52.808 0 29.13 23.679 52.808 52.808 52.808 29.13 0 52.808-23.679 52.808-52.808 0-29.13-23.679-52.808-52.808-52.808z"/><path fill="#0a3266" d="M115.5 223C78.266 223 48 192.7 48 155.5 48 118.266 78.3 88 115.5 88c37.234 0 67.5 30.3 67.5 67.5.034 37.234-30.266 67.5-67.5 67.5zm0-133.804c-36.551 0-66.304 29.753-66.304 66.304s29.753 66.304 66.304 66.304 66.304-29.753 66.304-66.304c.035-36.585-29.719-66.304-66.304-66.304z"/><path fill="#0a3266" d="M116 167c-6.632 0-12-5.402-12-12s5.402-12 12-12c6.632 0 12 5.402 12 12s-5.368 12-12 12zm0-22.803c-5.949 0-10.803 4.854-10.803 10.803 0 5.949 4.854 10.803 10.803 10.803 5.949 0 10.803-4.854 10.803-10.803 0-5.949-4.82-10.803-10.803-10.803z"/><path fill="#2A7AE4" d="M116.367 139.724L116.567 0l-.2 139.724z"/><path fill="#0a3266" d="M116.18 139.73L116.443.005h.334l-.265 139.725zm-.751.27c-.239 0-.429-.274-.429-.617l.167-138.8c0-.343.19-.583.428-.583s.405.274.405.617l-.143 138.835c0 .308-.19.548-.428.548zm4.555 15.016c0 1.248.035 2.53 0 3.777 0 .832-.245 1.629-.912 2.183-.42.346-.877.624-1.403.728-1.578.415-3.157.415-4.7-.139a2.848 2.848 0 01-1.263-.866c-.421-.45-.596-1.005-.632-1.629a14.881 14.881 0 010-1.767c.036-1.109.737-2.217 1.895-2.633 1.192-.416 2.385-.832 3.578-1.213 1.333-.45 1.403-1.663 1.017-2.598-.175-.45-.631-.693-1.087-.797a4.027 4.027 0 00-1.93-.035c-.736.173-1.192.658-1.298 1.386-.035.242-.14.346-.386.346h-1.543c-.28 0-.316-.034-.316-.346-.035-.832.14-1.594.702-2.218.526-.554 1.157-.866 1.93-1.004 1.262-.243 2.525-.278 3.788.034 1.157.277 2.034.936 2.42 2.114.105.277.14.589.14.9v3.777m-2.21.07c-.245.312-.596.38-.912.52-.736.242-1.473.485-2.21.762-.315.138-.631.312-.877.554-.526.52-.56 1.178-.42 1.871.14.693.596 1.074 1.297 1.213a5.174 5.174 0 001.79 0c.666-.139 1.122-.485 1.262-1.178a3.39 3.39 0 00.106-.832c0-.866 0-1.732-.036-2.598v-.312M116 212c-11.59 0-21-9.41-21-21s9.41-21 21-21 21 9.41 21 21-9.41 21-21 21zm0-40.79c-10.898 0-19.79 8.892-19.79 19.79s8.892 19.79 19.79 19.79 19.79-8.892 19.79-19.79-8.858-19.79-19.79-19.79z"/><path fill="#0a3266" d="M115.5 207c-9.103 0-16.5-7.397-16.5-16.5s7.397-16.5 16.5-16.5 16.5 7.397 16.5 16.5-7.397 16.5-16.5 16.5zm0-31.829c-8.434 0-15.329 6.861-15.329 15.329s6.861 15.329 15.329 15.329c8.434 0 15.329-6.861 15.329-15.329s-6.861-15.329-15.329-15.329z"/><path fill="#0a3266" d="M115.5 199c-5.235 0-9.5-4.265-9.5-9.5s4.265-9.5 9.5-9.5 9.5 4.265 9.5 9.5-4.265 9.5-9.5 9.5zm0-17.786a8.286 8.286 0 00-8.286 8.286 8.286 8.286 0 008.286 8.286 8.286 8.286 0 008.286-8.286 8.286 8.286 0 00-8.286-8.286z"/><path fill="#0a3266" d="M115.5 196c-3.57 0-6.5-2.896-6.5-6.5 0-3.57 2.896-6.5 6.5-6.5 3.57 0 6.5 2.896 6.5 6.5s-2.93 6.5-6.5 6.5zm0-11.788c-2.93 0-5.321 2.392-5.321 5.322s2.39 5.32 5.321 5.32c2.93 0 5.321-2.39 5.321-5.32s-2.39-5.322-5.321-5.322z"/><path fill="#0a3266" d="M117.545 202c-1.88 0-4.061-1.486-6.41-4.423a.706.706 0 01-.135-.449c0-.172.1-.31.201-.414l1.88-1.555c1.812-1.486 4.363-1.555 6.209-.138l2.483 1.9c.202.138.269.415.202.622-.034.138-.973 3.731-3.658 4.353-.235.07-.504.104-.772.104zm-5.102-4.734c2.215 2.592 4.162 3.801 5.639 3.456 1.543-.346 2.383-2.246 2.651-3.075l-2.148-1.624a3.75 3.75 0 00-4.766.103l-1.376 1.14z"/><path fill="#0a3266" d="M114.502 342c-.718 0-1.402-.379-1.846-.964-2.496-3.613-9.094-10.462-25.334-15.383-24.342-7.365-31.248-20.512-33.812-37.96l-1.505 2.03c-.615.792-1.606 1.102-2.53.757-.957-.344-1.538-1.204-1.47-2.237l1.197-26.086a2.165 2.165 0 011.573-2.03c.889-.276 1.88 0 2.427.756l16.205 21.062c.582.758.616 1.79.103 2.582-.513.826-1.436 1.204-2.393.998l-3.795-.86c.991 2.993 6.906 19.03 21.094 24.71 9.47 3.785 14.393 4.645 17.505 3.062 2.188-1.101 3.624-3.579 4.854-8.225 2.462-9.464 1.368-90.133.958-105.896a2.22 2.22 0 011.162-2.03 2.124 2.124 0 012.29.103l2.736 1.824a.97.97 0 001.128 0l2.735-1.824a2.124 2.124 0 012.29-.103 2.219 2.219 0 011.129 2.03c-.41 15.763-1.504 96.432.957 105.896 1.231 4.68 2.667 7.124 4.855 8.225 3.111 1.583 8 .723 17.504-3.063 14.155-5.678 20.103-21.681 21.095-24.71l-3.727.86a2.224 2.224 0 01-2.393-.997c-.513-.826-.479-1.824.103-2.582l16.205-21.062c.581-.757 1.538-1.067 2.427-.757.89.275 1.505 1.101 1.573 2.03l1.197 26.087c.034.998-.547 1.893-1.47 2.237-.958.345-1.95.035-2.565-.757l-1.572-2.1c-2.564 17.484-9.402 30.63-33.813 38.03-16.24 4.921-22.838 11.735-25.333 15.383-.308.585-.992.964-1.744.964zm-60.548-56.441c.034 0 .103 0 .137.034.24.07.41.276.444.517.035.206.069.447.103.654 2.427 17.38 8.957 30.457 33.06 37.753 16.616 5.025 23.385 12.08 25.983 15.831.206.275.513.447.855.447.342 0 .65-.172.855-.447 2.564-3.751 9.368-10.806 25.983-15.83 24.103-7.297 30.667-20.375 33.06-37.754l.103-.723a.626.626 0 01.444-.516c.24-.07.479.034.616.206l2.427 3.27c.342.447.82.481 1.197.344.342-.138.718-.482.684-1.033l-1.197-26.087c-.034-.55-.376-.86-.718-.963-.342-.103-.82-.069-1.128.344l-16.206 21.062c-.341.448-.239.895-.068 1.205.205.31.581.585 1.094.447l4.957-1.136a.602.602 0 01.65.241.629.629 0 010 .689l-.205.275c-.069.069-.103.172-.137.275-.615 1.996-6.598 19.651-21.88 25.777-9.847 3.924-15.01 4.784-18.462 3.029-2.53-1.274-4.171-3.992-5.47-9.017-2.496-9.602-1.436-90.443-.992-106.24 0-.378-.17-.723-.513-.929a.983.983 0 00-1.06.034l-2.735 1.824a2.146 2.146 0 01-2.461 0l-2.735-1.824c-.342-.206-.718-.24-1.06-.034-.342.206-.547.55-.513.93.41 15.796 1.504 96.637-.991 106.239-1.3 5.025-2.94 7.743-5.47 9.017-3.454 1.755-8.616.895-18.462-3.029-15.283-6.126-21.266-23.78-21.881-25.777-.034-.103-.068-.206-.137-.275a1.227 1.227 0 01-.205-.31c-.137-.206-.17-.482-.034-.688a.58.58 0 01.65-.241l5.025 1.17c.513.138.923-.172 1.094-.447a.995.995 0 00-.068-1.205l-16.205-21.062c-.342-.413-.787-.482-1.129-.344-.342.103-.718.413-.718.963l-1.196 26.087c-.034.585.342.895.684 1.033.341.137.854.103 1.196-.344l2.393-3.201c-.034-.138.137-.241.342-.241z"/><path fill="#0a3266" d="M130.344 322c-2.482 0-4.723-.516-6.654-1.72-5.688-3.474-8.756-12.624-9.687-28.723a.563.563 0 01.552-.62.564.564 0 01.62.551c.896 15.686 3.792 24.492 9.101 27.76 5.275 3.234 12.963 1.066 22.857-3.233 22.546-9.735 30.613-55.073 30.682-55.52.069-.344.379-.55.69-.482.344.069.55.379.482.688-.035.103-2.069 11.696-6.895 24.355-4.482 11.73-12.376 26.83-24.511 32.06-6.688 2.923-12.48 4.884-17.237 4.884z"/><path fill="#0a3266" d="M115.5 343c-.278 0-.5-.274-.5-.616V200.616c0-.342.222-.616.5-.616s.5.274.5.616v141.802c0 .308-.222.582-.5.582z"/><path fill="#0a3266" d="M100.725 322c-4.792 0-10.55-1.96-17.307-4.885-6.688-2.89-16.375-10.801-24.511-32.06-4.827-12.66-6.86-24.252-6.895-24.355a.572.572 0 01.482-.688.574.574 0 01.69.481c.034.104 2.034 11.593 6.826 24.149 4.413 11.524 12.135 26.316 23.857 31.372 9.894 4.266 17.582 6.468 22.856 3.234 5.31-3.268 8.205-12.074 9.102-27.76.034-.344.31-.585.62-.55.345.034.586.309.552.618-.931 16.1-4 25.215-9.688 28.724-1.896 1.17-4.102 1.72-6.584 1.72zm19.937-89h-11.358l-14.76-1.162a.615.615 0 01-.544-.618v-13.44c0-.327.238-.618.544-.618l14.76-1.162h11.392l14.76 1.162a.615.615 0 01.544.618v13.44c0 .327-.238.618-.544.618L120.696 233h-.034zm-11.29-1.271h11.29l14.182-1.09V218.36l-14.182-1.09h-11.29l-14.182 1.09v12.278l14.182 1.09z"/><path fill="#0a3266" d="M146.902 232h-8.805c-1.705 0-3.097-1.407-3.097-3.13v-7.74c0-1.723 1.392-3.13 3.097-3.13h8.805c1.705 0 3.097 1.407 3.097 3.13v7.74c.035 1.723-1.357 3.13-3.097 3.13zm-8.805-12.804a1.881 1.881 0 00-1.879 1.9v7.738c0 1.055.835 1.9 1.88 1.9h8.804c1.044 0 1.88-.845 1.88-1.9v-7.739a1.882 1.882 0 00-1.88-1.899h-8.805z"/><path fill="#0a3266" d="M138.978 234h-4.956c-1.664 0-3.022-1.395-3.022-3.105v-11.79c0-1.71 1.358-3.105 3.022-3.105h4.956c1.664 0 3.022 1.395 3.022 3.105v11.79c0 1.71-1.358 3.105-3.022 3.105zm-4.956-16.814c-1.019 0-1.834.837-1.834 1.884v11.79c0 1.047.815 1.884 1.834 1.884h4.956c1.019 0 1.834-.837 1.834-1.884v-11.755c0-1.047-.815-1.884-1.834-1.884h-4.956v-.035zM93.902 232h-8.805c-1.705 0-3.097-1.407-3.097-3.13v-7.74c0-1.723 1.392-3.13 3.097-3.13h8.805c1.705 0 3.097 1.407 3.097 3.13v7.74c.035 1.723-1.357 3.13-3.097 3.13zm-8.77-12.804c-1.044 0-1.88.844-1.88 1.9v7.738c0 1.055.836 1.9 1.88 1.9h8.77c1.044 0 1.88-.845 1.88-1.9v-7.739a1.882 1.882 0 00-1.88-1.899h-8.77z"/><path fill="#0a3266" d="M96.978 234H92.02c-1.663 0-3.021-1.395-3.021-3.105v-11.79c0-1.71 1.358-3.105 3.021-3.105h4.957c1.663 0 3.021 1.395 3.021 3.105v11.79A3.027 3.027 0 0196.977 234zm-4.923-16.814c-1.018 0-1.833.837-1.833 1.884v11.79c0 1.047.815 1.884 1.833 1.884h4.957c1.018 0 1.833-.837 1.833-1.884v-11.755c0-1.047-.815-1.884-1.833-1.884h-4.957v-.035zM51.597 292c-.068 0-.17 0-.238-.034a.583.583 0 01-.306-.78l5.439-12.81a.667.667 0 01.34-.34.579.579 0 01.476.035l13.394 7.49c.272.17.374.508.238.813a.642.642 0 01-.816.237l-12.816-7.15-5.167 12.166a.583.583 0 01-.544.373z"/></g></svg>